<svg xmlns="http://www.w3.org/2000/svg" viewBox="0 0 60 80">
  <!-- Stems -->
  <g stroke="#5a8a3a" stroke-width="2" fill="none">
    <path d="M30,80 Q28,60 24,45"/>
    <path d="M30,80 Q30,58 30,40"/>
    <path d="M30,80 Q32,60 36,45"/>
    <path d="M30,80 Q26,65 20,50"/>
    <path d="M30,80 Q34,65 40,50"/>
  </g>
  <!-- Leaves -->
  <g fill="#6a9a4a">
    <path d="M24,60 Q18,55 14,60 Q18,65 24,60Z"/>
    <path d="M36,62 Q42,57 46,62 Q42,67 36,62Z"/>
  </g>
  <!-- Flower 1 - pink -->
  <g>
    <circle cx="24" cy="38" r="6" fill="#e8a0a0" opacity="0.8"/>
    <circle cx="18" cy="36" r="5" fill="#e8a0a0" opacity="0.7"/>
    <circle cx="28" cy="34" r="5" fill="#e8a0a0" opacity="0.7"/>
    <circle cx="22" cy="32" r="4" fill="#f0b0b0" opacity="0.6"/>
    <circle cx="23" cy="36" r="3" fill="#d4a843"/>
  </g>
  <!-- Flower 2 - white -->
  <g>
    <circle cx="30" cy="32" r="5" fill="#f5f0e0" opacity="0.8"/>
    <circle cx="34" cy="30" r="5" fill="#f5f0e0" opacity="0.7"/>
    <circle cx="28" cy="28" r="4" fill="#faf5ea" opacity="0.7"/>
    <circle cx="31" cy="30" r="2.5" fill="#e8c060"/>
  </g>
  <!-- Flower 3 - lavender -->
  <g>
    <circle cx="38" cy="38" r="5.5" fill="#c8a0d8" opacity="0.8"/>
    <circle cx="42" cy="36" r="5" fill="#c8a0d8" opacity="0.7"/>
    <circle cx="36" cy="34" r="4.5" fill="#d0b0e0" opacity="0.6"/>
    <circle cx="39" cy="36" r="2.5" fill="#e0c848"/>
  </g>
  <!-- Flower 4 - golden -->
  <g>
    <circle cx="20" cy="44" r="5" fill="#e8c868" opacity="0.8"/>
    <circle cx="16" cy="42" r="4" fill="#e8c868" opacity="0.7"/>
    <circle cx="22" cy="41" r="4" fill="#f0d478" opacity="0.7"/>
    <circle cx="20" cy="42" r="2.5" fill="#c89830"/>
  </g>
  <!-- Flower 5 - terracotta -->
  <g>
    <circle cx="40" cy="44" r="5" fill="#c9886e" opacity="0.8"/>
    <circle cx="44" cy="42" r="4" fill="#c9886e" opacity="0.7"/>
    <circle cx="38" cy="41" r="4.5" fill="#d4987e" opacity="0.7"/>
    <circle cx="40" cy="42" r="2.5" fill="#d4a843"/>
  </g>
  <!-- Wrap ribbon -->
  <path d="M22,65 Q30,60 38,65" fill="none" stroke="#88b890" stroke-width="2.5"/>
  <path d="M26,68 Q30,72 34,68" fill="none" stroke="#88b890" stroke-width="1.5"/>
</svg>
