<svg xmlns="http://www.w3.org/2000/svg" width="512" height="512" viewBox="0 0 512 512">
  <defs>
    <linearGradient id="sky" x1="0" y1="0" x2="0" y2="1">
      <stop offset="0%" stop-color="#b8cfe0"/>
      <stop offset="40%" stop-color="#f5e6b8"/>
      <stop offset="80%" stop-color="#fefcf3"/>
      <stop offset="100%" stop-color="#e8f0da"/>
    </linearGradient>
    <radialGradient id="sun_glow" cx="50%" cy="22%" r="35%">
      <stop offset="0%" stop-color="#d4a843" stop-opacity="0.7"/>
      <stop offset="50%" stop-color="#f5e6b8" stop-opacity="0.3"/>
      <stop offset="100%" stop-color="#fefcf3" stop-opacity="0"/>
    </radialGradient>
    <linearGradient id="mountain_far" x1="0" y1="0" x2="0" y2="1">
      <stop offset="0%" stop-color="#a8c97a"/>
      <stop offset="100%" stop-color="#7da344"/>
    </linearGradient>
    <linearGradient id="mountain_near" x1="0" y1="0" x2="0" y2="1">
      <stop offset="0%" stop-color="#5e8a3c"/>
      <stop offset="100%" stop-color="#7da344"/>
    </linearGradient>
  </defs>
  <!-- Rounded background -->
  <rect width="512" height="512" rx="80" fill="url(#sky)"/>
  <!-- Sun glow -->
  <circle cx="256" cy="110" r="180" fill="url(#sun_glow)"/>
  <!-- Sun body -->
  <circle cx="256" cy="95" r="50" fill="#d4a843" opacity="0.95"/>
  <circle cx="256" cy="95" r="36" fill="#f5e6b8" opacity="0.6"/>
  <!-- Sun rays -->
  <g stroke="#d4a843" stroke-width="2.5" opacity="0.5">
    <line x1="256" y1="35" x2="256" y2="20"/>
    <line x1="295" y1="42" x2="305" y2="28"/>
    <line x1="325" y1="62" x2="340" y2="52"/>
    <line x1="217" y1="42" x2="207" y2="28"/>
    <line x1="187" y1="62" x2="172" y2="52"/>
  </g>
  <!-- Far mountain (left) -->
  <polygon points="0,400 80,220 180,180 280,240 350,400" fill="url(#mountain_far)" opacity="0.5"/>
  <!-- Far mountain (right) -->
  <polygon points="200,400 320,260 420,230 512,300 512,400" fill="url(#mountain_far)" opacity="0.4"/>
  <!-- Main mountain -->
  <polygon points="80,450 190,200 256,140 330,210 440,450" fill="url(#mountain_near)"/>
  <!-- Snow cap -->
  <polygon points="240,155 256,130 272,155 268,155 256,140 244,155" fill="white" opacity="0.7"/>
  <!-- Mountain texture lines -->
  <path d="M210,250 L240,260 L260,240 L290,270" stroke="#5e8a3c" stroke-width="1.5" fill="none" opacity="0.4"/>
  <path d="M180,320 L220,310 L260,330 L310,300" stroke="#5e8a3c" stroke-width="1.5" fill="none" opacity="0.3"/>
  <!-- Dotted path up mountain -->
  <path d="M200,420 Q220,380 230,340 Q240,300 250,260 Q255,230 258,180" stroke="#f5e6b8" stroke-width="3" fill="none" stroke-dasharray="8,6" opacity="0.6"/>
  <!-- Ground/grass -->
  <rect x="0" y="410" width="512" height="102" rx="0" fill="#8b7355" opacity="0.4"/>
  <rect x="0" y="420" width="512" height="92" rx="0" fill="#a8c97a" opacity="0.3"/>
  <!-- Trees at base -->
  <g opacity="0.9">
    <!-- Left tree -->
    <rect x="75" y="380" width="8" height="40" fill="#8b7355"/>
    <polygon points="55,385 79,330 103,385" fill="#5e8a3c"/>
    <polygon points="60,360 79,315 98,360" fill="#7da344"/>
    <!-- Right tree -->
    <rect x="408" y="375" width="8" height="45" fill="#8b7355"/>
    <polygon points="390,380 412,320 434,380" fill="#5e8a3c"/>
    <polygon points="394,355 412,305 430,355" fill="#7da344"/>
    <!-- Small bush left -->
    <ellipse cx="140" cy="420" rx="25" ry="18" fill="#7da344"/>
    <ellipse cx="155" cy="418" rx="20" ry="15" fill="#a8c97a"/>
    <!-- Small bush right -->
    <ellipse cx="370" cy="425" rx="22" ry="15" fill="#7da344"/>
    <ellipse cx="382" cy="423" rx="18" ry="13" fill="#a8c97a"/>
  </g>
  <!-- Climbing figure near summit -->
  <g transform="translate(268, 185)">
    <!-- Body -->
    <circle cx="0" cy="-12" r="7" fill="#f0d4b8"/>
    <line x1="0" y1="-5" x2="0" y2="12" stroke="#f0d4b8" stroke-width="3"/>
    <!-- Legs -->
    <line x1="0" y1="12" x2="-6" y2="22" stroke="#f0d4b8" stroke-width="2.5"/>
    <line x1="0" y1="12" x2="6" y2="22" stroke="#f0d4b8" stroke-width="2.5"/>
    <!-- Arms reaching up -->
    <line x1="0" y1="0" x2="-8" y2="-10" stroke="#f0d4b8" stroke-width="2.5"/>
    <line x1="0" y1="0" x2="8" y2="-10" stroke="#f0d4b8" stroke-width="2.5"/>
    <!-- Shirt color -->
    <line x1="0" y1="-4" x2="0" y2="10" stroke="#d4a843" stroke-width="5" opacity="0.6"/>
  </g>
  <!-- Flowers at base -->
  <circle cx="120" cy="435" r="5" fill="#c9886e"/>
  <circle cx="125" cy="432" r="4" fill="#f2e0d6"/>
  <circle cx="380" cy="440" r="4" fill="#c9886e"/>
  <circle cx="350" cy="435" r="5" fill="#f2e0d6"/>
  <circle cx="250" cy="445" r="4" fill="#c9886e"/>
  <!-- "7" at summit -->
  <text x="256" y="118" text-anchor="middle" font-size="40" font-weight="bold" fill="white" font-family="sans-serif" opacity="0.9">7</text>
  <!-- Small clouds -->
  <g opacity="0.5">
    <ellipse cx="100" cy="80" rx="40" ry="15" fill="white"/>
    <ellipse cx="90" cy="78" rx="25" ry="12" fill="white"/>
    <ellipse cx="420" cy="100" rx="35" ry="12" fill="white"/>
    <ellipse cx="430" cy="98" rx="22" ry="10" fill="white"/>
  </g>
  <!-- Vines on left side -->
  <path d="M30,460 Q25,400 35,340 Q30,280 40,220" stroke="#7da344" stroke-width="3" fill="none" opacity="0.4"/>
  <circle cx="33" cy="300" r="4" fill="#a8c97a" opacity="0.5"/>
  <circle cx="37" cy="260" r="3" fill="#a8c97a" opacity="0.5"/>
  <!-- Vines on right side -->
  <path d="M480,460 Q485,400 475,340 Q480,280 470,220" stroke="#7da344" stroke-width="3" fill="none" opacity="0.4"/>
  <circle cx="478" cy="310" r="4" fill="#a8c97a" opacity="0.5"/>
  <circle cx="473" cy="270" r="3" fill="#a8c97a" opacity="0.5"/>
</svg>
