<svg xmlns="http://www.w3.org/2000/svg" viewBox="0 0 40 200">
  <!-- Main vine stem -->
  <path d="M20,0 Q10,30 20,60 Q30,90 20,120 Q10,150 20,180 Q25,195 20,200" fill="none" stroke="#4a8a3a" stroke-width="5"/>
  <!-- Secondary vine -->
  <path d="M20,0 Q25,20 20,40 Q15,60 20,80 Q25,100 20,120" fill="none" stroke="#5a9a4a" stroke-width="2.5" opacity="0.5"/>
  <!-- Leaves -->
  <g fill="#5a9a3a" opacity="0.7">
    <path d="M18,30 Q8,20 5,30 Q8,40 18,30Z"/>
    <path d="M22,60 Q32,50 35,60 Q32,70 22,60Z"/>
    <path d="M18,90 Q8,80 5,90 Q8,100 18,90Z"/>
    <path d="M22,120 Q32,110 35,120 Q32,130 22,120Z"/>
    <path d="M18,150 Q8,140 5,150 Q8,160 18,150Z"/>
    <path d="M22,180 Q32,170 35,180 Q32,190 22,180Z"/>
  </g>
  <!-- Tendrils -->
  <g stroke="#6aaa4a" stroke-width="1" fill="none" opacity="0.4">
    <path d="M5,30 Q0,25 3,20"/>
    <path d="M35,60 Q40,55 37,50"/>
    <path d="M5,90 Q0,85 3,80"/>
    <path d="M35,120 Q40,115 37,110"/>
  </g>
</svg>
