<svg xmlns="http://www.w3.org/2000/svg" viewBox="0 0 1080 1920">
  <defs>
    <!-- Sky: golden hour twilight -->
    <linearGradient id="sky" x1="0" y1="0" x2="0" y2="1">
      <stop offset="0%" stop-color="#1a1040"/>
      <stop offset="15%" stop-color="#3d2060"/>
      <stop offset="35%" stop-color="#8a4070"/>
      <stop offset="55%" stop-color="#d4805a"/>
      <stop offset="75%" stop-color="#f0b848"/>
      <stop offset="100%" stop-color="#f8d878"/>
    </linearGradient>
    <!-- Golden sun glow -->
    <radialGradient id="sunGlow" cx="50%" cy="38%" r="35%">
      <stop offset="0%" stop-color="#fff8d0" stop-opacity="0.9"/>
      <stop offset="30%" stop-color="#f8d070" stop-opacity="0.5"/>
      <stop offset="70%" stop-color="#d48840" stop-opacity="0.15"/>
      <stop offset="100%" stop-color="#d48840" stop-opacity="0"/>
    </radialGradient>
    <!-- Secondary warm ambient -->
    <radialGradient id="ambientWarm" cx="50%" cy="60%" r="55%">
      <stop offset="0%" stop-color="#f8e0a0" stop-opacity="0.18"/>
      <stop offset="100%" stop-color="#f8e0a0" stop-opacity="0"/>
    </radialGradient>
    <!-- Grass gradient -->
    <linearGradient id="grass" x1="0" y1="0" x2="0" y2="1">
      <stop offset="0%" stop-color="#4a7838"/>
      <stop offset="50%" stop-color="#3a6030"/>
      <stop offset="100%" stop-color="#2a4820"/>
    </linearGradient>
    <!-- Pond water -->
    <radialGradient id="pondWater" cx="50%" cy="45%" r="50%">
      <stop offset="0%" stop-color="#5890a8"/>
      <stop offset="40%" stop-color="#406878"/>
      <stop offset="100%" stop-color="#284858"/>
    </radialGradient>
    <!-- Pond reflection shimmer -->
    <radialGradient id="pondShimmer" cx="45%" cy="35%" r="40%">
      <stop offset="0%" stop-color="#f8d878" stop-opacity="0.3"/>
      <stop offset="100%" stop-color="#f8d878" stop-opacity="0"/>
    </radialGradient>
    <!-- Fountain stone -->
    <linearGradient id="fountainStone" x1="0" y1="0" x2="0" y2="1">
      <stop offset="0%" stop-color="#c8b8a0"/>
      <stop offset="50%" stop-color="#a89880"/>
      <stop offset="100%" stop-color="#887868"/>
    </linearGradient>
    <!-- Fountain bowl -->
    <linearGradient id="fountainBowl" x1="0" y1="0" x2="0" y2="1">
      <stop offset="0%" stop-color="#b8a890"/>
      <stop offset="100%" stop-color="#908070"/>
    </linearGradient>
    <!-- Fountain water -->
    <radialGradient id="fountainWater" cx="50%" cy="40%" r="50%">
      <stop offset="0%" stop-color="#80b8d0"/>
      <stop offset="100%" stop-color="#5090a8"/>
    </radialGradient>
    <!-- Pillar stone -->
    <linearGradient id="pillarStone" x1="0" y1="0" x2="1" y2="0">
      <stop offset="0%" stop-color="#a09080"/>
      <stop offset="50%" stop-color="#c0b0a0"/>
      <stop offset="100%" stop-color="#908070"/>
    </linearGradient>
    <!-- Stone path -->
    <linearGradient id="pathStone" x1="0" y1="0" x2="0" y2="1">
      <stop offset="0%" stop-color="#c8b898"/>
      <stop offset="100%" stop-color="#a89878"/>
    </linearGradient>
    <!-- Hedge gradient -->
    <linearGradient id="hedgeGrad" x1="0" y1="0" x2="0" y2="1">
      <stop offset="0%" stop-color="#3a6828"/>
      <stop offset="100%" stop-color="#2a4818"/>
    </linearGradient>
    <!-- Tree trunk -->
    <linearGradient id="treeTrunk" x1="0" y1="0" x2="1" y2="0">
      <stop offset="0%" stop-color="#5a3828"/>
      <stop offset="50%" stop-color="#6a4838"/>
      <stop offset="100%" stop-color="#4a2818"/>
    </linearGradient>
    <!-- Cherry blossom canopy -->
    <radialGradient id="blossomL" cx="50%" cy="50%" r="50%">
      <stop offset="0%" stop-color="#f0a0b0"/>
      <stop offset="60%" stop-color="#d88898"/>
      <stop offset="100%" stop-color="#b87080" stop-opacity="0.5"/>
    </radialGradient>
    <radialGradient id="blossomR" cx="50%" cy="50%" r="50%">
      <stop offset="0%" stop-color="#e8a8b8"/>
      <stop offset="60%" stop-color="#d09098"/>
      <stop offset="100%" stop-color="#b07888" stop-opacity="0.5"/>
    </radialGradient>
    <!-- Gate metal -->
    <linearGradient id="gateMetal" x1="0" y1="0" x2="1" y2="0">
      <stop offset="0%" stop-color="#484038"/>
      <stop offset="40%" stop-color="#686050"/>
      <stop offset="100%" stop-color="#383028"/>
    </linearGradient>
    <!-- Gate glow behind -->
    <radialGradient id="gateGlow" cx="50%" cy="50%" r="50%">
      <stop offset="0%" stop-color="#f8e0a0" stop-opacity="0.7"/>
      <stop offset="60%" stop-color="#d8a850" stop-opacity="0.25"/>
      <stop offset="100%" stop-color="#d8a850" stop-opacity="0"/>
    </radialGradient>
    <!-- Bench stone -->
    <linearGradient id="benchStone" x1="0" y1="0" x2="0" y2="1">
      <stop offset="0%" stop-color="#b8a898"/>
      <stop offset="100%" stop-color="#988878"/>
    </linearGradient>
    <!-- Firefly glow -->
    <radialGradient id="firefly" cx="50%" cy="50%" r="50%">
      <stop offset="0%" stop-color="#fff8c0" stop-opacity="0.95"/>
      <stop offset="40%" stop-color="#f0d860" stop-opacity="0.6"/>
      <stop offset="100%" stop-color="#f0d860" stop-opacity="0"/>
    </radialGradient>
    <!-- Lotus petal -->
    <radialGradient id="lotusPink" cx="50%" cy="30%" r="60%">
      <stop offset="0%" stop-color="#fff0f0"/>
      <stop offset="100%" stop-color="#e090a0"/>
    </radialGradient>
    <radialGradient id="lotusWhite" cx="50%" cy="30%" r="60%">
      <stop offset="0%" stop-color="#ffffff"/>
      <stop offset="100%" stop-color="#d0d8d0"/>
    </radialGradient>
    <!-- Rose gradient -->
    <radialGradient id="roseRed" cx="40%" cy="35%" r="55%">
      <stop offset="0%" stop-color="#e05060"/>
      <stop offset="100%" stop-color="#a03040"/>
    </radialGradient>
    <!-- Peacock body -->
    <linearGradient id="peacockBody" x1="0" y1="0" x2="0" y2="1">
      <stop offset="0%" stop-color="#1868a0"/>
      <stop offset="100%" stop-color="#104870"/>
    </linearGradient>
    <!-- Peacock feather eye -->
    <radialGradient id="featherEye" cx="50%" cy="50%" r="50%">
      <stop offset="0%" stop-color="#1848a0"/>
      <stop offset="35%" stop-color="#20a070"/>
      <stop offset="70%" stop-color="#40c888"/>
      <stop offset="100%" stop-color="#a08830"/>
    </radialGradient>
    <!-- Vine leaf -->
    <linearGradient id="vineLeaf" x1="0" y1="0" x2="0" y2="1">
      <stop offset="0%" stop-color="#58a040"/>
      <stop offset="100%" stop-color="#387028"/>
    </linearGradient>

    <!-- FILTERS -->
    <filter id="softGlow" x="-20%" y="-20%" width="140%" height="140%">
      <feGaussianBlur stdDeviation="6" result="blur"/>
      <feMerge>
        <feMergeNode in="blur"/>
        <feMergeNode in="SourceGraphic"/>
      </feMerge>
    </filter>
    <filter id="magicGlow" x="-30%" y="-30%" width="160%" height="160%">
      <feGaussianBlur stdDeviation="12" result="blur"/>
      <feMerge>
        <feMergeNode in="blur"/>
        <feMergeNode in="SourceGraphic"/>
      </feMerge>
    </filter>
    <filter id="stoneShadow" x="-5%" y="-5%" width="115%" height="120%">
      <feDropShadow dx="3" dy="5" stdDeviation="5" flood-color="#1a1008" flood-opacity="0.35"/>
    </filter>
    <filter id="treeShadow" x="-10%" y="-5%" width="125%" height="115%">
      <feDropShadow dx="4" dy="6" stdDeviation="8" flood-color="#1a1008" flood-opacity="0.3"/>
    </filter>
    <filter id="softBlur" x="-5%" y="-5%" width="110%" height="110%">
      <feGaussianBlur stdDeviation="4"/>
    </filter>
    <filter id="waterRipple" x="-5%" y="-5%" width="110%" height="110%">
      <feGaussianBlur stdDeviation="2"/>
    </filter>
    <filter id="heavyGlow" x="-40%" y="-40%" width="180%" height="180%">
      <feGaussianBlur stdDeviation="18"/>
    </filter>
    <filter id="subtleShadow" x="-5%" y="-5%" width="110%" height="115%">
      <feDropShadow dx="1" dy="2" stdDeviation="3" flood-color="#1a1008" flood-opacity="0.2"/>
    </filter>
  </defs>

  <!-- ========== LAYER 0: SKY ========== -->
  <rect width="1080" height="1920" fill="url(#sky)"/>
  <rect width="1080" height="1920" fill="url(#sunGlow)"/>
  <rect width="1080" height="1920" fill="url(#ambientWarm)"/>

  <!-- Stars (upper twilight zone) -->
  <circle cx="120" cy="60" r="1.5" fill="#fff" opacity="0.6"/>
  <circle cx="320" cy="40" r="1" fill="#fff" opacity="0.5"/>
  <circle cx="580" cy="80" r="1.2" fill="#fff" opacity="0.4"/>
  <circle cx="780" cy="50" r="1.8" fill="#fff" opacity="0.55"/>
  <circle cx="950" cy="90" r="1" fill="#fff" opacity="0.45"/>
  <circle cx="200" cy="120" r="1.3" fill="#fff" opacity="0.35"/>
  <circle cx="680" cy="30" r="1.5" fill="#fff" opacity="0.5"/>
  <circle cx="440" cy="100" r="1" fill="#ffe8c0" opacity="0.4"/>
  <circle cx="860" cy="140" r="1.2" fill="#fff" opacity="0.3"/>

  <!-- Distant golden clouds -->
  <ellipse cx="250" cy="320" rx="200" ry="40" fill="#d88850" opacity="0.25" filter="url(#softBlur)"/>
  <ellipse cx="750" cy="290" rx="180" ry="35" fill="#c87848" opacity="0.2" filter="url(#softBlur)"/>
  <ellipse cx="540" cy="350" rx="250" ry="45" fill="#e0a060" opacity="0.2" filter="url(#softBlur)"/>
  <ellipse cx="150" cy="260" rx="120" ry="28" fill="#d89060" opacity="0.15" filter="url(#softBlur)"/>
  <ellipse cx="900" cy="340" rx="160" ry="30" fill="#c87050" opacity="0.18" filter="url(#softBlur)"/>

  <!-- ========== LAYER 1: DISTANT GARDEN GATE ========== -->
  <g filter="url(#softBlur)" opacity="0.85">
    <!-- Gate glow from beyond -->
    <ellipse cx="540" cy="480" rx="160" ry="140" fill="url(#gateGlow)"/>
    <!-- Gate pillars -->
    <rect x="420" y="360" width="40" height="200" rx="4" fill="#706050"/>
    <rect x="620" y="360" width="40" height="200" rx="4" fill="#706050"/>
    <!-- Gate arch -->
    <path d="M420,360 Q540,260 660,360" fill="none" stroke="#706050" stroke-width="20" stroke-linecap="round"/>
    <!-- Gate ornament on arch -->
    <circle cx="540" cy="300" r="18" fill="none" stroke="#807060" stroke-width="3"/>
    <circle cx="540" cy="300" r="8" fill="#c8a050" opacity="0.6"/>
    <!-- Left gate door (closed) -->
    <rect x="435" y="370" width="85" height="180" rx="3" fill="url(#gateMetal)" opacity="0.8"/>
    <!-- Right gate door (partially open — rotated perspective) -->
    <path d="M560,370 L620,385 L620,545 L560,550 Z" fill="#585040" opacity="0.7"/>
    <!-- Gate bars -->
    <line x1="460" y1="380" x2="460" y2="540" stroke="#504838" stroke-width="3" opacity="0.6"/>
    <line x1="490" y1="380" x2="490" y2="540" stroke="#504838" stroke-width="3" opacity="0.6"/>
    <line x1="580" y1="380" x2="600" y2="390" stroke="#504838" stroke-width="2" opacity="0.5"/>
    <!-- Golden light spilling through open gate -->
    <path d="M560,400 L680,500 L660,560 L560,550 Z" fill="#f8d878" opacity="0.12"/>
  </g>

  <!-- ========== LAYER 2: HEDGEROW MAZE WALLS ========== -->
  <!-- Back hedges -->
  <rect x="0" y="480" width="380" height="120" rx="20" fill="url(#hedgeGrad)" filter="url(#subtleShadow)"/>
  <rect x="700" y="480" width="380" height="120" rx="20" fill="url(#hedgeGrad)" filter="url(#subtleShadow)"/>
  <!-- Hedge leaf texture -->
  <circle cx="60" cy="510" r="18" fill="#4a7830" opacity="0.5"/>
  <circle cx="120" cy="520" r="22" fill="#3a6020" opacity="0.4"/>
  <circle cx="200" cy="505" r="20" fill="#4a7830" opacity="0.45"/>
  <circle cx="290" cy="518" r="24" fill="#3a5820" opacity="0.4"/>
  <circle cx="340" cy="500" r="16" fill="#4a7830" opacity="0.5"/>
  <circle cx="750" cy="512" r="20" fill="#4a7830" opacity="0.45"/>
  <circle cx="840" cy="505" r="22" fill="#3a6020" opacity="0.4"/>
  <circle cx="930" cy="518" r="18" fill="#4a7830" opacity="0.5"/>
  <circle cx="1020" cy="508" r="24" fill="#3a5820" opacity="0.4"/>
  <!-- Mid-level hedges angled -->
  <path d="M0,620 Q80,590 180,630 Q250,610 300,640 L300,700 Q250,670 180,690 Q80,650 0,680 Z" fill="#2a5018" opacity="0.7"/>
  <path d="M780,620 Q860,590 960,630 Q1020,610 1080,640 L1080,700 Q1020,670 960,690 Q860,650 780,680 Z" fill="#2a5018" opacity="0.7"/>

  <!-- ========== LAYER 3: CHERRY BLOSSOM TREES ========== -->
  <!-- Left cherry tree -->
  <g filter="url(#treeShadow)">
    <!-- Trunk -->
    <path d="M120,600 Q110,750 100,900 Q95,950 80,1000" stroke="url(#treeTrunk)" stroke-width="35" fill="none" stroke-linecap="round"/>
    <!-- Branch left -->
    <path d="M110,700 Q60,650 20,620" stroke="#5a3828" stroke-width="14" fill="none" stroke-linecap="round"/>
    <!-- Branch right -->
    <path d="M115,680 Q180,630 240,610" stroke="#5a3828" stroke-width="12" fill="none" stroke-linecap="round"/>
    <!-- Branch up -->
    <path d="M118,650 Q140,560 170,500" stroke="#5a3828" stroke-width="10" fill="none" stroke-linecap="round"/>
    <!-- Canopy blossoms -->
    <ellipse cx="80" cy="560" rx="120" ry="90" fill="url(#blossomL)" opacity="0.85"/>
    <ellipse cx="180" cy="520" rx="100" ry="80" fill="#e098a8" opacity="0.7"/>
    <ellipse cx="30" cy="590" rx="80" ry="60" fill="#d890a0" opacity="0.6"/>
    <ellipse cx="160" cy="580" rx="70" ry="55" fill="#e8a0b0" opacity="0.65"/>
    <!-- Individual blossom clusters -->
    <circle cx="50" cy="530" r="15" fill="#f0b0c0" opacity="0.7"/>
    <circle cx="130" cy="490" r="12" fill="#f8c0d0" opacity="0.6"/>
    <circle cx="210" cy="540" r="10" fill="#f0b0c0" opacity="0.65"/>
    <circle cx="90" cy="480" r="14" fill="#f8c8d0" opacity="0.55"/>
  </g>

  <!-- Right cherry tree -->
  <g filter="url(#treeShadow)">
    <path d="M960,580 Q970,730 980,900 Q985,960 1000,1020" stroke="url(#treeTrunk)" stroke-width="32" fill="none" stroke-linecap="round"/>
    <path d="M970,680 Q1020,640 1060,610" stroke="#5a3828" stroke-width="12" fill="none" stroke-linecap="round"/>
    <path d="M965,660 Q900,610 840,590" stroke="#5a3828" stroke-width="11" fill="none" stroke-linecap="round"/>
    <path d="M968,640 Q940,550 910,490" stroke="#5a3828" stroke-width="9" fill="none" stroke-linecap="round"/>
    <ellipse cx="1000" cy="540" rx="110" ry="85" fill="url(#blossomR)" opacity="0.85"/>
    <ellipse cx="900" cy="510" rx="95" ry="75" fill="#d890a0" opacity="0.7"/>
    <ellipse cx="1040" cy="580" rx="75" ry="55" fill="#e098a8" opacity="0.6"/>
    <ellipse cx="870" cy="560" rx="65" ry="50" fill="#e8a0b0" opacity="0.65"/>
    <circle cx="940" cy="500" r="13" fill="#f0b0c0" opacity="0.7"/>
    <circle cx="1020" cy="520" r="11" fill="#f8c0d0" opacity="0.6"/>
    <circle cx="860" cy="530" r="10" fill="#f0b0c0" opacity="0.65"/>
  </g>

  <!-- Falling petals -->
  <ellipse cx="200" cy="680" rx="5" ry="3" fill="#f0b0c0" opacity="0.6" transform="rotate(25,200,680)"/>
  <ellipse cx="350" cy="750" rx="4" ry="2.5" fill="#f8c0d0" opacity="0.5" transform="rotate(-15,350,750)"/>
  <ellipse cx="740" cy="700" rx="5" ry="3" fill="#f0b0c0" opacity="0.55" transform="rotate(40,740,700)"/>
  <ellipse cx="880" cy="760" rx="4" ry="2.5" fill="#e8a8b8" opacity="0.5" transform="rotate(-30,880,760)"/>
  <ellipse cx="500" cy="650" rx="4" ry="2" fill="#f8c8d0" opacity="0.45" transform="rotate(10,500,650)"/>
  <ellipse cx="620" cy="720" rx="5" ry="3" fill="#f0b8c0" opacity="0.5" transform="rotate(-20,620,720)"/>

  <!-- ========== LAYER 4: STONE PILLARS WITH VINES ========== -->
  <!-- Left pillar -->
  <g filter="url(#stoneShadow)">
    <rect x="250" y="550" width="55" height="350" rx="5" fill="url(#pillarStone)"/>
    <!-- Pillar cap -->
    <rect x="240" y="540" width="75" height="25" rx="6" fill="#b8a890"/>
    <!-- Pillar base -->
    <rect x="240" y="890" width="75" height="25" rx="5" fill="#988878"/>
    <!-- Sacred carving: om symbol simplified -->
    <circle cx="278" cy="700" r="18" fill="none" stroke="#c8b898" stroke-width="2" opacity="0.5"/>
    <path d="M268,700 Q278,680 288,700 Q278,715 268,700" fill="none" stroke="#c8b898" stroke-width="1.5" opacity="0.4"/>
    <circle cx="278" cy="688" r="3" fill="#c8b898" opacity="0.4"/>
    <!-- Climbing vine -->
    <path d="M260,880 Q245,820 270,770 Q290,730 260,680 Q240,640 268,590" fill="none" stroke="#3a7028" stroke-width="4" opacity="0.7"/>
    <!-- Vine leaves -->
    <ellipse cx="248" cy="810" rx="12" ry="7" fill="url(#vineLeaf)" transform="rotate(-30,248,810)" opacity="0.8"/>
    <ellipse cx="285" cy="750" rx="11" ry="6" fill="url(#vineLeaf)" transform="rotate(25,285,750)" opacity="0.75"/>
    <ellipse cx="245" cy="680" rx="10" ry="6" fill="url(#vineLeaf)" transform="rotate(-20,245,680)" opacity="0.7"/>
    <ellipse cx="275" cy="630" rx="12" ry="7" fill="url(#vineLeaf)" transform="rotate(30,275,630)" opacity="0.75"/>
    <ellipse cx="260" cy="590" rx="9" ry="5" fill="url(#vineLeaf)" transform="rotate(-15,260,590)" opacity="0.65"/>
    <!-- Small roses on vine -->
    <circle cx="255" cy="770" r="7" fill="url(#roseRed)" opacity="0.8"/>
    <circle cx="280" cy="650" r="6" fill="url(#roseRed)" opacity="0.75"/>
    <circle cx="250" cy="620" r="5" fill="#e06070" opacity="0.7"/>
  </g>

  <!-- Right pillar -->
  <g filter="url(#stoneShadow)">
    <rect x="775" y="550" width="55" height="350" rx="5" fill="url(#pillarStone)"/>
    <rect x="765" y="540" width="75" height="25" rx="6" fill="#b8a890"/>
    <rect x="765" y="890" width="75" height="25" rx="5" fill="#988878"/>
    <!-- Sacred carving: lotus simplified -->
    <ellipse cx="803" cy="720" rx="16" ry="10" fill="none" stroke="#c8b898" stroke-width="1.5" opacity="0.5"/>
    <path d="M793,720 Q803,700 813,720" fill="none" stroke="#c8b898" stroke-width="1.5" opacity="0.4"/>
    <path d="M788,722 Q803,695 818,722" fill="none" stroke="#c8b898" stroke-width="1.2" opacity="0.35"/>
    <!-- Climbing vine -->
    <path d="M820,880 Q835,820 810,770 Q790,730 820,680 Q840,640 812,590" fill="none" stroke="#3a7028" stroke-width="4" opacity="0.7"/>
    <ellipse cx="832" cy="810" rx="12" ry="7" fill="url(#vineLeaf)" transform="rotate(30,832,810)" opacity="0.8"/>
    <ellipse cx="795" cy="750" rx="11" ry="6" fill="url(#vineLeaf)" transform="rotate(-25,795,750)" opacity="0.75"/>
    <ellipse cx="835" cy="680" rx="10" ry="6" fill="url(#vineLeaf)" transform="rotate(20,835,680)" opacity="0.7"/>
    <ellipse cx="805" cy="630" rx="12" ry="7" fill="url(#vineLeaf)" transform="rotate(-30,805,630)" opacity="0.75"/>
    <ellipse cx="820" cy="590" rx="9" ry="5" fill="url(#vineLeaf)" transform="rotate(15,820,590)" opacity="0.65"/>
    <circle cx="825" cy="770" r="7" fill="url(#roseRed)" opacity="0.8"/>
    <circle cx="800" cy="650" r="6" fill="url(#roseRed)" opacity="0.75"/>
    <circle cx="830" cy="620" r="5" fill="#e06070" opacity="0.7"/>
  </g>

  <!-- ========== LAYER 5: MAIN GROUND ========== -->
  <path d="M0,850 Q200,820 540,840 Q880,820 1080,850 L1080,1920 L0,1920 Z" fill="url(#grass)"/>
  <!-- Grass texture -->
  <path d="M0,870 Q120,855 250,872 Q400,858 540,875 Q700,860 850,878 Q1000,862 1080,875" fill="none" stroke="#3a6028" stroke-width="2" opacity="0.4"/>
  <path d="M0,900 Q150,890 300,905 Q500,892 700,908 Q900,895 1080,905" fill="none" stroke="#2a5018" stroke-width="1.5" opacity="0.3"/>

  <!-- ========== LAYER 6: STONE SERPENTINE PATH ========== -->
  <path d="M540,1920 Q520,1800 480,1680 Q420,1550 460,1420 Q520,1320 560,1220 Q590,1140 540,1050 Q500,980 540,920" fill="url(#pathStone)" stroke="#a08868" stroke-width="2" opacity="0.9" filter="url(#subtleShadow)"/>
  <!-- Path width (right edge) -->
  <path d="M540,1920 Q620,1800 600,1680 Q560,1550 590,1420 Q640,1320 660,1220 Q680,1140 650,1050 Q620,980 640,920" fill="url(#pathStone)" stroke="#a08868" stroke-width="1.5" opacity="0.7"/>
  <!-- Path fill between edges -->
  <path d="M540,920 Q500,980 540,1050 Q590,1140 560,1220 Q520,1320 460,1420 Q420,1550 480,1680 Q520,1800 540,1920
           L540,1920 Q620,1800 600,1680 Q560,1550 590,1420 Q640,1320 660,1220 Q680,1140 650,1050 Q620,980 640,920 Z"
        fill="url(#pathStone)" opacity="0.85"/>
  <!-- Stepping stones on path -->
  <ellipse cx="560" cy="960" rx="45" ry="14" fill="#b8a080" opacity="0.5"/>
  <ellipse cx="540" cy="1060" rx="48" ry="13" fill="#c0a888" opacity="0.45"/>
  <ellipse cx="570" cy="1170" rx="42" ry="12" fill="#b8a080" opacity="0.5"/>
  <ellipse cx="520" cy="1300" rx="50" ry="14" fill="#c0a888" opacity="0.45"/>
  <ellipse cx="490" cy="1450" rx="45" ry="13" fill="#b8a080" opacity="0.5"/>
  <ellipse cx="530" cy="1580" rx="48" ry="14" fill="#c0a888" opacity="0.45"/>
  <ellipse cx="510" cy="1700" rx="45" ry="13" fill="#b8a080" opacity="0.5"/>
  <ellipse cx="540" cy="1820" rx="50" ry="14" fill="#c0a888" opacity="0.45"/>
  <!-- Sacred symbols carved on path stones -->
  <circle cx="560" cy="960" r="6" fill="none" stroke="#c8b898" stroke-width="1" opacity="0.4"/>
  <path d="M516,1298 L524,1302 L516,1306" fill="none" stroke="#c8b898" stroke-width="1" opacity="0.35"/>
  <circle cx="530" cy="1580" r="5" fill="none" stroke="#c8b898" stroke-width="1" opacity="0.35"/>
  <path d="M530,1580 L530,1575 M527,1578 L533,1578" fill="none" stroke="#c8b898" stroke-width="1" opacity="0.3"/>

  <!-- ========== LAYER 7: LILY POND ========== -->
  <ellipse cx="540" cy="920" rx="200" ry="80" fill="url(#pondWater)" filter="url(#waterRipple)"/>
  <ellipse cx="540" cy="920" rx="200" ry="80" fill="url(#pondShimmer)"/>
  <!-- Pond edge stones -->
  <ellipse cx="540" cy="920" rx="210" ry="88" fill="none" stroke="#807060" stroke-width="8" opacity="0.5"/>
  <ellipse cx="540" cy="920" rx="215" ry="92" fill="none" stroke="#908070" stroke-width="4" opacity="0.3"/>
  <!-- Water ripple circles -->
  <ellipse cx="490" cy="910" rx="30" ry="10" fill="none" stroke="#80b8d0" stroke-width="1" opacity="0.3"/>
  <ellipse cx="590" cy="930" rx="25" ry="8" fill="none" stroke="#80b8d0" stroke-width="1" opacity="0.25"/>
  <ellipse cx="540" cy="900" rx="40" ry="12" fill="none" stroke="#90c0d0" stroke-width="0.8" opacity="0.2"/>
  <!-- Lily pads -->
  <ellipse cx="420" cy="910" rx="30" ry="14" fill="#3a7030" opacity="0.7"/>
  <path d="M420,896 L420,910" stroke="#284820" stroke-width="1" opacity="0.4"/>
  <ellipse cx="640" cy="925" rx="28" ry="12" fill="#3a7030" opacity="0.65"/>
  <path d="M640,913 L640,925" stroke="#284820" stroke-width="1" opacity="0.4"/>
  <ellipse cx="480" cy="940" rx="25" ry="11" fill="#408038" opacity="0.6"/>
  <ellipse cx="580" cy="905" rx="26" ry="12" fill="#3a7030" opacity="0.65"/>
  <ellipse cx="510" cy="895" rx="22" ry="10" fill="#408038" opacity="0.55"/>
  <ellipse cx="680" cy="910" rx="20" ry="9" fill="#3a7030" opacity="0.5"/>

  <!-- Lotus flowers on pond -->
  <!-- Lotus 1 (large, pink) -->
  <g transform="translate(420,900)" filter="url(#softGlow)">
    <ellipse cx="0" cy="5" rx="14" ry="5" fill="#2a5020" opacity="0.4"/>
    <path d="M-12,0 Q0,-18 12,0" fill="url(#lotusPink)" opacity="0.85"/>
    <path d="M-8,0 Q0,-14 8,0" fill="#f0c0c8" opacity="0.7"/>
    <path d="M-15,2 Q-5,-12 0,2" fill="url(#lotusPink)" opacity="0.7"/>
    <path d="M0,2 Q5,-12 15,2" fill="url(#lotusPink)" opacity="0.7"/>
    <circle cx="0" cy="-2" r="3" fill="#f0d060" opacity="0.8"/>
  </g>
  <!-- Lotus 2 (white) -->
  <g transform="translate(580,895)" filter="url(#softGlow)">
    <ellipse cx="0" cy="4" rx="12" ry="4" fill="#2a5020" opacity="0.4"/>
    <path d="M-10,0 Q0,-15 10,0" fill="url(#lotusWhite)" opacity="0.85"/>
    <path d="M-7,0 Q0,-11 7,0" fill="#e8e8e0" opacity="0.7"/>
    <path d="M-13,2 Q-4,-10 0,2" fill="url(#lotusWhite)" opacity="0.7"/>
    <path d="M0,2 Q4,-10 13,2" fill="url(#lotusWhite)" opacity="0.7"/>
    <circle cx="0" cy="-1" r="2.5" fill="#e8c840" opacity="0.8"/>
  </g>
  <!-- Lotus 3 (pink, smaller) -->
  <g transform="translate(480,935)" filter="url(#softGlow)">
    <ellipse cx="0" cy="3" rx="10" ry="4" fill="#2a5020" opacity="0.35"/>
    <path d="M-8,0 Q0,-12 8,0" fill="url(#lotusPink)" opacity="0.8"/>
    <path d="M-5,0 Q0,-8 5,0" fill="#f0c8d0" opacity="0.65"/>
    <circle cx="0" cy="-1" r="2" fill="#e8c840" opacity="0.7"/>
  </g>
  <!-- Lotus 4 (bud) -->
  <g transform="translate(660,918)">
    <path d="M0,5 L0,-5" stroke="#4a7838" stroke-width="2"/>
    <path d="M-4,-3 Q0,-12 4,-3" fill="#e0a0b0" opacity="0.75"/>
  </g>

  <!-- ========== LAYER 8: ORNATE FOUNTAIN ========== -->
  <g filter="url(#stoneShadow)">
    <!-- Fountain base (in pond) -->
    <ellipse cx="540" cy="920" rx="65" ry="28" fill="#908070"/>
    <rect x="500" y="885" width="80" height="38" rx="3" fill="url(#fountainStone)"/>
    <!-- Fountain pedestal -->
    <rect x="515" y="790" width="50" height="100" rx="4" fill="url(#fountainStone)"/>
    <!-- Carved detail on pedestal -->
    <rect x="520" y="830" width="40" height="3" fill="#b8a890" opacity="0.5"/>
    <rect x="520" y="845" width="40" height="3" fill="#b8a890" opacity="0.5"/>
    <rect x="520" y="860" width="40" height="3" fill="#b8a890" opacity="0.5"/>
    <!-- Sacred flower carving on pedestal -->
    <circle cx="540" cy="815" r="10" fill="none" stroke="#c0a880" stroke-width="1.5" opacity="0.5"/>
    <path d="M533,815 Q540,805 547,815 Q540,825 533,815" fill="none" stroke="#c0a880" stroke-width="1" opacity="0.4"/>
    <!-- Upper bowl -->
    <ellipse cx="540" cy="790" rx="55" ry="22" fill="url(#fountainBowl)"/>
    <ellipse cx="540" cy="788" rx="45" ry="16" fill="url(#fountainWater)"/>
    <!-- Fountain spire -->
    <rect x="533" y="720" width="14" height="72" rx="3" fill="url(#fountainStone)"/>
    <!-- Top ornament -->
    <circle cx="540" cy="715" r="12" fill="#b8a890"/>
    <circle cx="540" cy="715" r="8" fill="#c8b8a0"/>
    <!-- Finial point -->
    <path d="M540,695 L536,710 L544,710 Z" fill="#c0a880"/>
    <!-- Water streams falling from bowl -->
    <path d="M500,790 Q490,830 495,860 Q500,880 510,890" fill="none" stroke="#80b8d0" stroke-width="3" opacity="0.5"/>
    <path d="M580,790 Q590,830 585,860 Q580,880 570,890" fill="none" stroke="#80b8d0" stroke-width="3" opacity="0.5"/>
    <path d="M510,792 Q505,825 510,850" fill="none" stroke="#90c8d8" stroke-width="2" opacity="0.35"/>
    <path d="M570,792 Q575,825 570,850" fill="none" stroke="#90c8d8" stroke-width="2" opacity="0.35"/>
    <!-- Water spray at top -->
    <path d="M540,720 Q538,700 530,690" fill="none" stroke="#a0d0e0" stroke-width="2" opacity="0.4"/>
    <path d="M540,720 Q542,700 550,690" fill="none" stroke="#a0d0e0" stroke-width="2" opacity="0.4"/>
    <path d="M540,720 Q540,698 540,685" fill="none" stroke="#a0d0e0" stroke-width="2.5" opacity="0.45"/>
    <!-- Water droplets -->
    <circle cx="528" cy="688" r="2" fill="#a0d0e0" opacity="0.5"/>
    <circle cx="552" cy="690" r="2" fill="#a0d0e0" opacity="0.5"/>
    <circle cx="540" cy="682" r="2.5" fill="#b0d8e8" opacity="0.55"/>
  </g>

  <!-- Fountain golden glow -->
  <ellipse cx="540" cy="790" rx="80" ry="50" fill="#f8d878" opacity="0.08" filter="url(#heavyGlow)"/>

  <!-- ========== LAYER 9: MEDITATION STONE BENCH ========== -->
  <g filter="url(#stoneShadow)">
    <!-- Bench left side -->
    <rect x="100" y="1120" width="180" height="22" rx="4" fill="url(#benchStone)"/>
    <!-- Bench legs -->
    <rect x="115" y="1140" width="25" height="45" rx="3" fill="#988878"/>
    <rect x="240" y="1140" width="25" height="45" rx="3" fill="#988878"/>
    <!-- Cross support -->
    <rect x="125" y="1160" width="125" height="8" rx="2" fill="#a89888"/>
    <!-- Carved detail on bench seat -->
    <path d="M120,1128 Q190,1122 260,1128" fill="none" stroke="#c0a890" stroke-width="1.5" opacity="0.4"/>
    <!-- Sacred spiral carving on bench leg -->
    <path d="M128,1155 Q135,1148 138,1158 Q142,1168 135,1170" fill="none" stroke="#b8a898" stroke-width="1" opacity="0.4"/>
  </g>

  <!-- Small cushion on bench -->
  <ellipse cx="190" cy="1118" rx="28" ry="8" fill="#8a3848" opacity="0.6"/>
  <ellipse cx="190" cy="1116" rx="24" ry="5" fill="#a04858" opacity="0.5"/>

  <!-- ========== LAYER 10: PEACOCK ========== -->
  <g transform="translate(830,1050)" filter="url(#subtleShadow)">
    <!-- Tail feathers (fan) -->
    <path d="M0,0 Q-80,-120 -60,-180" stroke="#2a8a50" stroke-width="2" fill="none" opacity="0.5"/>
    <path d="M0,0 Q-50,-130 -20,-190" stroke="#2a8a50" stroke-width="2" fill="none" opacity="0.5"/>
    <path d="M0,0 Q-10,-140 20,-195" stroke="#2a8a50" stroke-width="2" fill="none" opacity="0.5"/>
    <path d="M0,0 Q30,-130 60,-185" stroke="#2a8a50" stroke-width="2" fill="none" opacity="0.5"/>
    <path d="M0,0 Q60,-110 90,-170" stroke="#2a8a50" stroke-width="2" fill="none" opacity="0.5"/>
    <!-- Feather eye spots -->
    <circle cx="-58" cy="-175" r="8" fill="url(#featherEye)" opacity="0.8"/>
    <circle cx="-58" cy="-175" r="3" fill="#1838a0" opacity="0.7"/>
    <circle cx="-18" cy="-185" r="8" fill="url(#featherEye)" opacity="0.8"/>
    <circle cx="-18" cy="-185" r="3" fill="#1838a0" opacity="0.7"/>
    <circle cx="22" cy="-190" r="8" fill="url(#featherEye)" opacity="0.8"/>
    <circle cx="22" cy="-190" r="3" fill="#1838a0" opacity="0.7"/>
    <circle cx="62" cy="-180" r="8" fill="url(#featherEye)" opacity="0.8"/>
    <circle cx="62" cy="-180" r="3" fill="#1838a0" opacity="0.7"/>
    <circle cx="92" cy="-165" r="8" fill="url(#featherEye)" opacity="0.8"/>
    <circle cx="92" cy="-165" r="3" fill="#1838a0" opacity="0.7"/>
    <!-- Feather fronds -->
    <ellipse cx="-58" cy="-170" rx="12" ry="18" fill="#30a868" opacity="0.3"/>
    <ellipse cx="-18" cy="-180" rx="12" ry="18" fill="#30a868" opacity="0.3"/>
    <ellipse cx="22" cy="-185" rx="12" ry="18" fill="#30a868" opacity="0.3"/>
    <ellipse cx="62" cy="-175" rx="12" ry="18" fill="#30a868" opacity="0.3"/>
    <ellipse cx="92" cy="-160" rx="12" ry="18" fill="#30a868" opacity="0.3"/>
    <!-- Body -->
    <ellipse cx="0" cy="10" rx="22" ry="30" fill="url(#peacockBody)"/>
    <!-- Neck -->
    <path d="M0,-18 Q-5,-50 0,-70" stroke="#1868a0" stroke-width="12" fill="none" stroke-linecap="round"/>
    <!-- Head -->
    <circle cx="0" cy="-75" r="10" fill="#1060a0"/>
    <!-- Beak -->
    <path d="M8,-78 L18,-80 L10,-75" fill="#606060"/>
    <!-- Eye -->
    <circle cx="4" cy="-77" r="2.5" fill="#fff"/>
    <circle cx="5" cy="-77" r="1.5" fill="#101010"/>
    <!-- Crown feathers -->
    <line x1="-3" y1="-85" x2="-5" y2="-98" stroke="#1868a0" stroke-width="1.5"/>
    <circle cx="-5" cy="-99" r="2" fill="#20a070"/>
    <line x1="0" y1="-85" x2="0" y2="-100" stroke="#1868a0" stroke-width="1.5"/>
    <circle cx="0" cy="-101" r="2" fill="#20a070"/>
    <line x1="3" y1="-85" x2="5" y2="-98" stroke="#1868a0" stroke-width="1.5"/>
    <circle cx="5" cy="-99" r="2" fill="#20a070"/>
    <!-- Legs -->
    <line x1="-8" y1="38" x2="-12" y2="60" stroke="#706050" stroke-width="3"/>
    <line x1="8" y1="38" x2="12" y2="60" stroke="#706050" stroke-width="3"/>
    <!-- Feet -->
    <path d="M-16,60 L-12,60 L-8,62" stroke="#706050" stroke-width="2" fill="none"/>
    <path d="M8,62 L12,60 L16,60" stroke="#706050" stroke-width="2" fill="none"/>
  </g>

  <!-- ========== LAYER 11: FOREGROUND FLOWER BEDS ========== -->
  <!-- Left flower bed with roses -->
  <ellipse cx="120" cy="1280" rx="140" ry="50" fill="#3a6828" opacity="0.7"/>
  <ellipse cx="100" cy="1270" rx="100" ry="35" fill="#4a7838" opacity="0.6"/>
  <!-- Roses -->
  <circle cx="60" cy="1260" r="12" fill="url(#roseRed)" filter="url(#softGlow)"/>
  <circle cx="100" cy="1250" r="14" fill="#c84050" filter="url(#softGlow)"/>
  <circle cx="140" cy="1258" r="11" fill="url(#roseRed)" filter="url(#softGlow)"/>
  <circle cx="80" cy="1275" r="10" fill="#d85060" opacity="0.8"/>
  <circle cx="130" cy="1278" r="9" fill="#c84050" opacity="0.75"/>
  <circle cx="170" cy="1270" r="8" fill="url(#roseRed)" opacity="0.7"/>
  <!-- Rose leaves -->
  <ellipse cx="75" cy="1268" rx="8" ry="4" fill="#3a6828" transform="rotate(-20,75,1268)"/>
  <ellipse cx="120" cy="1265" rx="9" ry="5" fill="#3a6828" transform="rotate(15,120,1265)"/>
  <ellipse cx="155" cy="1272" rx="7" ry="4" fill="#3a6828" transform="rotate(-10,155,1272)"/>

  <!-- Right flower bed with luminous flowers -->
  <ellipse cx="950" cy="1300" rx="130" ry="45" fill="#3a6828" opacity="0.7"/>
  <ellipse cx="970" cy="1290" rx="95" ry="30" fill="#4a7838" opacity="0.6"/>
  <!-- Glowing flowers -->
  <circle cx="910" cy="1280" r="10" fill="#f0d060" opacity="0.7" filter="url(#softGlow)"/>
  <circle cx="950" cy="1275" r="12" fill="#f8e080" opacity="0.75" filter="url(#softGlow)"/>
  <circle cx="990" cy="1282" r="9" fill="#f0c850" opacity="0.7" filter="url(#softGlow)"/>
  <circle cx="1030" cy="1288" r="11" fill="#e8c040" opacity="0.65" filter="url(#softGlow)"/>
  <circle cx="930" cy="1295" r="8" fill="#f0d060" opacity="0.6"/>
  <circle cx="970" cy="1298" r="7" fill="#f8d870" opacity="0.55"/>
  <!-- Flower stems -->
  <line x1="910" y1="1290" x2="910" y2="1310" stroke="#3a6828" stroke-width="2" opacity="0.5"/>
  <line x1="950" y1="1287" x2="950" y2="1308" stroke="#3a6828" stroke-width="2" opacity="0.5"/>
  <line x1="990" y1="1291" x2="990" y2="1312" stroke="#3a6828" stroke-width="2" opacity="0.5"/>

  <!-- ========== LAYER 12: ADDITIONAL HIDING-SPOT DETAILS ========== -->
  <!-- Foreground stone with sacred carving (left of path) -->
  <g filter="url(#subtleShadow)">
    <ellipse cx="350" cy="1400" rx="55" ry="35" fill="#908878"/>
    <ellipse cx="350" cy="1395" rx="50" ry="30" fill="#a09888"/>
    <!-- Carved triquetra/knot -->
    <path d="M340,1390 Q350,1375 360,1390 Q355,1400 345,1400 Q335,1398 340,1390" fill="none" stroke="#b8a898" stroke-width="1.5" opacity="0.45"/>
    <!-- Moss on stone -->
    <ellipse cx="340" cy="1405" rx="15" ry="5" fill="#4a7838" opacity="0.4"/>
  </g>

  <!-- Small decorative urn (right of path) -->
  <g transform="translate(700,1350)" filter="url(#subtleShadow)">
    <path d="M-15,0 Q-18,-15 -12,-30 Q0,-38 12,-30 Q18,-15 15,0 Z" fill="#a08870"/>
    <rect x="-17" y="-2" width="34" height="6" rx="2" fill="#988068"/>
    <ellipse cx="0" cy="-32" rx="14" ry="4" fill="#b09880"/>
    <!-- Trailing plant from urn -->
    <path d="M10,-25 Q25,-20 30,-10 Q35,0 40,15" stroke="#3a7028" stroke-width="2" fill="none" opacity="0.6"/>
    <ellipse cx="35" cy="5" rx="6" ry="4" fill="url(#vineLeaf)" transform="rotate(20,35,5)" opacity="0.6"/>
    <ellipse cx="42" cy="18" rx="5" ry="3" fill="url(#vineLeaf)" transform="rotate(30,42,18)" opacity="0.55"/>
  </g>

  <!-- Scattered path-side stones -->
  <ellipse cx="420" cy="1520" rx="18" ry="12" fill="#908070" opacity="0.6"/>
  <ellipse cx="650" cy="1480" rx="15" ry="10" fill="#887868" opacity="0.55"/>
  <ellipse cx="380" cy="1650" rx="20" ry="13" fill="#908070" opacity="0.5"/>
  <ellipse cx="660" cy="1620" rx="16" ry="11" fill="#887868" opacity="0.5"/>

  <!-- Wild grass tufts near path -->
  <path d="M400,1440 Q395,1420 398,1400" stroke="#4a8038" stroke-width="2" fill="none" opacity="0.5"/>
  <path d="M405,1440 Q408,1415 412,1395" stroke="#3a7028" stroke-width="1.5" fill="none" opacity="0.45"/>
  <path d="M410,1440 Q418,1418 420,1398" stroke="#4a8038" stroke-width="2" fill="none" opacity="0.5"/>
  <path d="M670,1460 Q675,1440 672,1420" stroke="#4a8038" stroke-width="2" fill="none" opacity="0.5"/>
  <path d="M678,1460 Q682,1435 685,1418" stroke="#3a7028" stroke-width="1.5" fill="none" opacity="0.45"/>

  <!-- ========== LAYER 13: FOREGROUND LUSH ELEMENTS ========== -->
  <!-- Left foreground bush -->
  <ellipse cx="80" cy="1700" rx="120" ry="70" fill="#2a5018" opacity="0.7"/>
  <ellipse cx="60" cy="1680" rx="90" ry="55" fill="#3a6828" opacity="0.6"/>
  <ellipse cx="120" cy="1690" rx="60" ry="40" fill="#4a7838" opacity="0.5"/>
  <!-- Bush flowers -->
  <circle cx="40" cy="1670" r="8" fill="#e0a0b0" opacity="0.6"/>
  <circle cx="90" cy="1660" r="6" fill="#d890a0" opacity="0.55"/>
  <circle cx="130" cy="1675" r="7" fill="#e0a0b0" opacity="0.5"/>

  <!-- Right foreground bush -->
  <ellipse cx="1000" cy="1720" rx="110" ry="65" fill="#2a5018" opacity="0.7"/>
  <ellipse cx="1020" cy="1700" rx="85" ry="50" fill="#3a6828" opacity="0.6"/>
  <ellipse cx="960" cy="1710" rx="55" ry="38" fill="#4a7838" opacity="0.5"/>
  <!-- Bush flowers -->
  <circle cx="970" cy="1690" r="7" fill="#d0a0e0" opacity="0.6"/>
  <circle cx="1030" cy="1685" r="6" fill="#c890d0" opacity="0.55"/>
  <circle cx="1050" cy="1705" r="8" fill="#d0a0e0" opacity="0.5"/>

  <!-- Foreground grass blades at bottom edge -->
  <path d="M0,1880 Q15,1840 20,1810" stroke="#3a7028" stroke-width="4" fill="none" opacity="0.5"/>
  <path d="M25,1890 Q35,1855 30,1825" stroke="#2a5018" stroke-width="3" fill="none" opacity="0.45"/>
  <path d="M50,1895 Q55,1860 48,1830" stroke="#4a8038" stroke-width="3.5" fill="none" opacity="0.5"/>
  <path d="M1030,1885 Q1040,1850 1050,1820" stroke="#3a7028" stroke-width="4" fill="none" opacity="0.5"/>
  <path d="M1055,1890 Q1060,1855 1065,1825" stroke="#2a5018" stroke-width="3" fill="none" opacity="0.45"/>
  <path d="M1070,1900 Q1075,1860 1080,1835" stroke="#4a8038" stroke-width="3" fill="none" opacity="0.5"/>

  <!-- Bottom left fern -->
  <g transform="translate(160,1850)" opacity="0.6">
    <path d="M0,0 Q-20,-40 -10,-80" stroke="#3a7028" stroke-width="3" fill="none"/>
    <ellipse cx="-18" cy="-50" rx="12" ry="5" fill="#3a7028" transform="rotate(-30,-18,-50)"/>
    <ellipse cx="-8" cy="-70" rx="10" ry="4" fill="#4a8038" transform="rotate(-15,-8,-70)"/>
    <ellipse cx="-22" cy="-35" rx="10" ry="4" fill="#3a7028" transform="rotate(-40,-22,-35)"/>
    <path d="M0,0 Q10,-45 25,-75" stroke="#3a7028" stroke-width="2.5" fill="none"/>
    <ellipse cx="18" cy="-50" rx="10" ry="4" fill="#3a7028" transform="rotate(25,18,-50)"/>
    <ellipse cx="25" cy="-68" rx="8" ry="3.5" fill="#4a8038" transform="rotate(15,25,-68)"/>
  </g>

  <!-- Bottom right fern -->
  <g transform="translate(920,1860)" opacity="0.6">
    <path d="M0,0 Q20,-35 15,-75" stroke="#3a7028" stroke-width="3" fill="none"/>
    <ellipse cx="20" cy="-45" rx="11" ry="5" fill="#3a7028" transform="rotate(30,20,-45)"/>
    <ellipse cx="14" cy="-65" rx="9" ry="4" fill="#4a8038" transform="rotate(15,14,-65)"/>
    <path d="M0,0 Q-15,-40 -20,-70" stroke="#3a7028" stroke-width="2.5" fill="none"/>
    <ellipse cx="-18" cy="-48" rx="10" ry="4" fill="#3a7028" transform="rotate(-25,-18,-48)"/>
  </g>

  <!-- ========== LAYER 14: COLORFUL BIRDS ========== -->
  <!-- Bird 1: small songbird on left tree branch -->
  <g transform="translate(180,600)">
    <ellipse cx="0" cy="0" rx="10" ry="7" fill="#c85030"/>
    <circle cx="10" cy="-4" r="5" fill="#d06040"/>
    <path d="M14,-5 L20,-6 L15,-3" fill="#e8a030"/>
    <circle cx="12" cy="-5" r="1.5" fill="#101010"/>
    <path d="M-8,2 L-14,8 L-10,8" fill="#884030"/>
    <!-- Wing -->
    <path d="M-4,-2 Q-10,-8 -6,2" fill="#a04028" opacity="0.7"/>
  </g>

  <!-- Bird 2: in flight near top -->
  <g transform="translate(400,250)" opacity="0.6">
    <path d="M-20,0 Q-10,-12 0,0 Q10,-12 20,0" fill="none" stroke="#302020" stroke-width="2.5"/>
  </g>
  <!-- Bird 3: in flight -->
  <g transform="translate(650,200)" opacity="0.5">
    <path d="M-15,0 Q-8,-10 0,0 Q8,-10 15,0" fill="none" stroke="#302020" stroke-width="2"/>
  </g>

  <!-- ========== LAYER 15: FIREFLIES / LIGHT PARTICLES ========== -->
  <!-- Fireflies scattered throughout the scene -->
  <circle cx="180" cy="780" r="5" fill="url(#firefly)" filter="url(#magicGlow)" opacity="0.9"/>
  <circle cx="320" cy="850" r="4" fill="url(#firefly)" filter="url(#magicGlow)" opacity="0.85"/>
  <circle cx="760" cy="830" r="5" fill="url(#firefly)" filter="url(#magicGlow)" opacity="0.9"/>
  <circle cx="890" cy="900" r="4" fill="url(#firefly)" filter="url(#magicGlow)" opacity="0.8"/>
  <circle cx="450" cy="1000" r="4.5" fill="url(#firefly)" filter="url(#magicGlow)" opacity="0.85"/>
  <circle cx="680" cy="1060" r="3.5" fill="url(#firefly)" filter="url(#magicGlow)" opacity="0.75"/>
  <circle cx="250" cy="1150" r="5" fill="url(#firefly)" filter="url(#magicGlow)" opacity="0.8"/>
  <circle cx="150" cy="1050" r="4" fill="url(#firefly)" filter="url(#magicGlow)" opacity="0.7"/>
  <circle cx="550" cy="1150" r="3.5" fill="url(#firefly)" filter="url(#magicGlow)" opacity="0.75"/>
  <circle cx="800" cy="1200" r="4.5" fill="url(#firefly)" filter="url(#magicGlow)" opacity="0.85"/>
  <circle cx="400" cy="1350" r="4" fill="url(#firefly)" filter="url(#magicGlow)" opacity="0.7"/>
  <circle cx="700" cy="1300" r="3.5" fill="url(#firefly)" filter="url(#magicGlow)" opacity="0.75"/>
  <circle cx="260" cy="1450" r="5" fill="url(#firefly)" filter="url(#magicGlow)" opacity="0.8"/>
  <circle cx="850" cy="1420" r="4" fill="url(#firefly)" filter="url(#magicGlow)" opacity="0.7"/>
  <circle cx="480" cy="1550" r="4.5" fill="url(#firefly)" filter="url(#magicGlow)" opacity="0.8"/>
  <circle cx="620" cy="1500" r="3.5" fill="url(#firefly)" filter="url(#magicGlow)" opacity="0.7"/>
  <circle cx="300" cy="1600" r="4" fill="url(#firefly)" filter="url(#magicGlow)" opacity="0.75"/>
  <circle cx="750" cy="1580" r="5" fill="url(#firefly)" filter="url(#magicGlow)" opacity="0.85"/>
  <circle cx="180" cy="1700" r="4" fill="url(#firefly)" filter="url(#magicGlow)" opacity="0.7"/>
  <circle cx="900" cy="1650" r="3.5" fill="url(#firefly)" filter="url(#magicGlow)" opacity="0.65"/>
  <!-- Extra fireflies near fountain for magical emphasis -->
  <circle cx="510" cy="750" r="3" fill="url(#firefly)" filter="url(#magicGlow)" opacity="0.9"/>
  <circle cx="570" cy="770" r="3.5" fill="url(#firefly)" filter="url(#magicGlow)" opacity="0.85"/>
  <circle cx="525" cy="860" r="3" fill="url(#firefly)" filter="url(#magicGlow)" opacity="0.8"/>
  <circle cx="555" cy="840" r="2.5" fill="url(#firefly)" filter="url(#magicGlow)" opacity="0.75"/>

  <!-- ========== LAYER 16: GOLDEN OVERLAY & ATMOSPHERE ========== -->
  <!-- Golden hour vignette -->
  <rect width="1080" height="1920" fill="url(#ambientWarm)" opacity="0.5"/>
  <!-- Warm edge darkening (vignette) -->
  <radialGradient id="vignette" cx="50%" cy="45%" r="60%">
    <stop offset="0%" stop-color="#000" stop-opacity="0"/>
    <stop offset="80%" stop-color="#000" stop-opacity="0"/>
    <stop offset="100%" stop-color="#1a0808" stop-opacity="0.35"/>
  </radialGradient>
  <rect width="1080" height="1920" fill="url(#vignette)"/>

  <!-- Magical dust motes (large, faint) -->
  <circle cx="300" cy="500" r="2" fill="#f8e8c0" opacity="0.3"/>
  <circle cx="700" cy="450" r="1.8" fill="#f8e8c0" opacity="0.25"/>
  <circle cx="200" cy="950" r="2.2" fill="#f8e8c0" opacity="0.2"/>
  <circle cx="850" cy="1000" r="1.5" fill="#f8e8c0" opacity="0.25"/>
  <circle cx="450" cy="1200" r="2" fill="#f8e8c0" opacity="0.2"/>
  <circle cx="650" cy="1400" r="1.8" fill="#f8e8c0" opacity="0.22"/>
  <circle cx="350" cy="1550" r="2.5" fill="#f8e8c0" opacity="0.18"/>
  <circle cx="780" cy="1700" r="2" fill="#f8e8c0" opacity="0.2"/>
</svg>