<svg xmlns="http://www.w3.org/2000/svg" viewBox="0 0 100 80">
  <!-- Gate posts -->
  <rect x="28" y="15" width="8" height="60" rx="2" fill="#8b7355"/>
  <rect x="64" y="15" width="8" height="60" rx="2" fill="#8b7355"/>
  <!-- Arch -->
  <path d="M28,15 Q50,0 72,15" stroke="#8b7355" stroke-width="7" fill="none" stroke-linecap="round"/>
  <!-- Vines -->
  <path d="M32,48 Q24,42 30,35 Q36,28 30,22" stroke="#5e8a3c" stroke-width="2.5" fill="none"/>
  <path d="M68,52 Q76,45 70,38 Q64,32 70,26" stroke="#5e8a3c" stroke-width="2.5" fill="none"/>
  <!-- Vine leaves -->
  <ellipse cx="26" cy="38" rx="4" ry="2.5" fill="#6a9545" transform="rotate(-20,26,38)"/>
  <ellipse cx="74" cy="42" rx="4" ry="2.5" fill="#6a9545" transform="rotate(15,74,42)"/>
  <!-- Small flowers -->
  <circle cx="28" cy="30" r="3.5" fill="#c9886e" opacity="0.8"/>
  <circle cx="28" cy="30" r="1.5" fill="#d4a843"/>
  <circle cx="73" cy="34" r="3" fill="#e8a0c0" opacity="0.8"/>
  <circle cx="73" cy="34" r="1.3" fill="#d4a843"/>
  <!-- Post caps -->
  <circle cx="32" cy="15" r="5" fill="#8b7355"/>
  <circle cx="68" cy="15" r="5" fill="#8b7355"/>
</svg>
