<svg xmlns="http://www.w3.org/2000/svg" viewBox="0 0 80 200">
  <!-- Roots -->
  <line x1="35" y1="170" x2="28" y2="180" stroke="#6b5340" stroke-width="2.5" stroke-linecap="round"/>
  <line x1="45" y1="170" x2="52" y2="180" stroke="#6b5340" stroke-width="2.5" stroke-linecap="round"/>
  <line x1="40" y1="172" x2="40" y2="182" stroke="#6b5340" stroke-width="2" stroke-linecap="round"/>
  <!-- Trunk -->
  <polygon points="32,175 48,175 44,110 36,110" fill="#8b7355"/>
  <!-- Bark texture -->
  <line x1="38" y1="160" x2="37" y2="148" stroke="#6b5340" stroke-width="1.2" opacity="0.6"/>
  <line x1="42" y1="145" x2="43" y2="132" stroke="#6b5340" stroke-width="1" opacity="0.5"/>
  <line x1="39" y1="130" x2="38" y2="120" stroke="#6b5340" stroke-width="1" opacity="0.4"/>
  <!-- Crown shadow layer -->
  <circle cx="32" cy="92" r="24" fill="#4a7030" opacity="0.7"/>
  <circle cx="50" cy="88" r="22" fill="#4a7030" opacity="0.6"/>
  <circle cx="42" cy="98" r="20" fill="#4a7030" opacity="0.5"/>
  <!-- Main foliage -->
  <circle cx="40" cy="80" r="28" fill="#5e8a3c"/>
  <circle cx="28" cy="85" r="22" fill="#6a9545"/>
  <circle cx="52" cy="82" r="23" fill="#5e8a3c"/>
  <circle cx="36" cy="70" r="20" fill="#6a9545"/>
  <circle cx="48" cy="72" r="18" fill="#5e8a3c"/>
  <!-- Highlights -->
  <circle cx="34" cy="68" r="10" fill="#7da344" opacity="0.8"/>
  <circle cx="46" cy="74" r="8" fill="#a8c97a" opacity="0.5"/>
  <circle cx="30" cy="78" r="6" fill="#a8c97a" opacity="0.4"/>
</svg>
