<svg xmlns="http://www.w3.org/2000/svg" viewBox="0 0 120 200">
  <defs>
    <radialGradient id="skin" cx="50%" cy="38%" r="55%">
      <stop offset="0%" stop-color="#fce4cc"/>
      <stop offset="100%" stop-color="#e8c4a0"/>
    </radialGradient>
    <linearGradient id="hair" x1="0" y1="0" x2="0" y2="1">
      <stop offset="0%" stop-color="#5a3a20"/>
      <stop offset="100%" stop-color="#3a2010"/>
    </linearGradient>
    <radialGradient id="iris" cx="45%" cy="38%" r="50%">
      <stop offset="0%" stop-color="#6a5232"/>
      <stop offset="55%" stop-color="#3a2a1a"/>
      <stop offset="100%" stop-color="#1a0a00"/>
    </radialGradient>
    <linearGradient id="pants" x1="0" y1="0" x2="0" y2="1">
      <stop offset="0%" stop-color="#fcfcfa"/>
      <stop offset="100%" stop-color="#e8e6e0"/>
    </linearGradient>
    <linearGradient id="shirt" x1="0" y1="0" x2="0" y2="1">
      <stop offset="0%" stop-color="#fffef8"/>
      <stop offset="100%" stop-color="#f0ede4"/>
    </linearGradient>
    <radialGradient id="shoe" cx="50%" cy="40%" r="60%">
      <stop offset="0%" stop-color="#b09878"/>
      <stop offset="100%" stop-color="#7a6248"/>
    </radialGradient>
    <filter id="glow" x="-20%" y="-20%" width="140%" height="140%">
      <feGaussianBlur stdDeviation="1.2" result="blur"/>
      <feComposite in="SourceGraphic" in2="blur" operator="over"/>
    </filter>
    <filter id="shadow" x="-10%" y="-10%" width="120%" height="130%">
      <feDropShadow dx="0" dy="1.5" stdDeviation="1.5" flood-color="#000" flood-opacity="0.12"/>
    </filter>
    <filter id="inner_shadow" x="-5%" y="-5%" width="110%" height="115%">
      <feDropShadow dx="0" dy="1" stdDeviation="1" flood-color="#000" flood-opacity="0.08"/>
    </filter>
  </defs>

  <!-- Ground shadow -->
  <ellipse cx="60" cy="194" rx="30" ry="5" fill="#000" opacity="0.1"/>

  <!-- === LEGS === -->
  <line x1="48" y1="155" x2="46" y2="176" stroke="url(#skin)" stroke-width="11" stroke-linecap="round"/>
  <line x1="48" y1="155" x2="46" y2="176" stroke="#d8b898" stroke-width="11" stroke-linecap="round" opacity="0.15"/>
  <line x1="72" y1="155" x2="74" y2="176" stroke="url(#skin)" stroke-width="11" stroke-linecap="round"/>

  <!-- === SHOES === -->
  <ellipse cx="46" cy="183" rx="14" ry="8" fill="url(#shoe)" filter="url(#shadow)"/>
  <ellipse cx="46" cy="181" rx="10" ry="4" fill="#c8b088" opacity="0.25"/>
  <ellipse cx="74" cy="183" rx="14" ry="8" fill="url(#shoe)" filter="url(#shadow)"/>
  <ellipse cx="74" cy="181" rx="10" ry="4" fill="#c8b088" opacity="0.25"/>

  <!-- === PANTS (two separate pant legs) === -->
  <!-- Left pant leg -->
  <polygon points="36,160 40,106 58,106 54,160" fill="url(#pants)" filter="url(#shadow)"/>
  <!-- Right pant leg -->
  <polygon points="66,160 62,106 80,106 84,160" fill="url(#pants)" filter="url(#shadow)"/>
  <!-- Inseam lines -->
  <line x1="54" y1="112" x2="54" y2="160" stroke="#d4d0c8" stroke-width="1" opacity="0.3"/>
  <line x1="66" y1="112" x2="66" y2="160" stroke="#d4d0c8" stroke-width="1" opacity="0.3"/>
  <!-- Side creases -->
  <line x1="46" y1="112" x2="42" y2="156" stroke="#ddd" stroke-width="1.2" opacity="0.3"/>
  <line x1="74" y1="112" x2="78" y2="156" stroke="#ddd" stroke-width="1.2" opacity="0.3"/>
  <!-- Hem lines -->
  <line x1="36" y1="158" x2="54" y2="158" stroke="#d0ccc4" stroke-width="1.5" opacity="0.5"/>
  <line x1="66" y1="158" x2="84" y2="158" stroke="#d0ccc4" stroke-width="1.5" opacity="0.5"/>
  <!-- Waistband -->
  <rect x="38" y="104" width="44" height="5" rx="2.5" fill="#e8dcd0" opacity="0.5"/>

  <!-- === TORSO / SHIRT === -->
  <path d="M40,106 Q38,78 42,74 L78,74 Q82,78 80,106Z" fill="url(#shirt)" filter="url(#inner_shadow)"/>
  <!-- Polo collar V-opening -->
  <path d="M60,74 L54,88" stroke="#f0d8c0" stroke-width="3" fill="none" stroke-linecap="round"/>
  <path d="M60,74 L66,88" stroke="#f0d8c0" stroke-width="3" fill="none" stroke-linecap="round"/>
  <!-- Polo collar (pointed, structured) -->
  <path d="M48,76 L54,80 L60,74 L66,80 L72,76" stroke="#e8e2d8" stroke-width="1.5" fill="#f8f4ee" opacity="0.7"/>
  <!-- 3 buttons -->
  <circle cx="60" cy="88" r="2" fill="#d4cec4"/>
  <circle cx="60" cy="94" r="2" fill="#d4cec4"/>
  <circle cx="60" cy="100" r="2" fill="#d4cec4"/>

  <!-- === ARMS === -->
  <!-- Left arm -->
  <line x1="38" y1="82" x2="22" y2="124" stroke="#d8b898" stroke-width="10" stroke-linecap="round" opacity="0.15"/>
  <line x1="38" y1="80" x2="22" y2="122" stroke="url(#skin)" stroke-width="10" stroke-linecap="round"/>
  <circle cx="22" cy="122" r="6.5" fill="url(#skin)"/>
  <circle cx="20" cy="120" r="2.5" fill="#fce4cc" opacity="0.35"/>
  <!-- Right arm -->
  <line x1="82" y1="80" x2="98" y2="122" stroke="url(#skin)" stroke-width="10" stroke-linecap="round"/>
  <circle cx="98" cy="122" r="6.5" fill="url(#skin)"/>
  <circle cx="96" cy="120" r="2.5" fill="#fce4cc" opacity="0.35"/>
  <!-- Sleeves (fitted, not puffy) -->
  <ellipse cx="38" cy="80" rx="12" ry="10" fill="url(#shirt)" filter="url(#inner_shadow)"/>
  <ellipse cx="38" cy="78" rx="7" ry="4" fill="white" opacity="0.12"/>
  <ellipse cx="82" cy="80" rx="12" ry="10" fill="url(#shirt)" filter="url(#inner_shadow)"/>
  <ellipse cx="82" cy="78" rx="7" ry="4" fill="white" opacity="0.12"/>

  <!-- === NECK === -->
  <rect x="53" y="58" width="14" height="18" fill="url(#skin)" rx="5"/>

  <!-- === HAIR BACK (spiky — dark base shadow + base crown, BEFORE head) === -->
  <!-- Dark base shadow behind all hair -->
  <path d="M29,46 Q28,24 32,16 Q42,8 60,7 Q78,8 88,16 Q92,24 91,46" fill="#2a1808" opacity="0.3"/>
  <!-- Base crown hugging head -->
  <path d="M31,44 Q30,26 34,18 Q44,12 60,10 Q76,12 86,18 Q90,26 89,44" fill="url(#hair)"/>

  <!-- === HEAD (chibi — larger, rounder) === -->
  <ellipse cx="60" cy="40" rx="30" ry="32" fill="url(#skin)" filter="url(#shadow)"/>
  <!-- Cheek blush (subtle for male) -->
  <ellipse cx="36" cy="50" rx="7" ry="4" fill="#ffb0a0" opacity="0.12"/>
  <ellipse cx="84" cy="50" rx="7" ry="4" fill="#ffb0a0" opacity="0.12"/>
  <!-- Forehead highlight -->
  <ellipse cx="58" cy="22" rx="16" ry="10" fill="white" opacity="0.07"/>

  <!-- === HAIR TOP (spiky details — spikes, side volume, textures, highlights) === -->
  <!-- Spike shadow silhouettes (behind main spikes, darker) -->
  <polygon points="36,22 42,-6 50,18" fill="#2a1808" opacity="0.2"/>
  <polygon points="45,16 53,-10 60,14" fill="#2a1808" opacity="0.18"/>
  <polygon points="54,12 62,-12 70,13" fill="#2a1808" opacity="0.2"/>
  <polygon points="63,14 72,-8 79,17" fill="#2a1808" opacity="0.18"/>
  <polygon points="72,18 81,-4 90,22" fill="#2a1808" opacity="0.2"/>
  <!-- Side volume (short, y<=54) -->
  <path d="M31,44 Q29,50 32,54 Q34,52 35,48" fill="url(#hair)" opacity="0.9"/>
  <path d="M89,44 Q91,50 88,54 Q86,52 85,48" fill="url(#hair)" opacity="0.9"/>
  <!-- Side depth shadow -->
  <path d="M31,44 Q28,48 31,53" fill="#2a1808" opacity="0.2"/>
  <path d="M89,44 Q92,48 89,53" fill="#2a1808" opacity="0.2"/>
  <!-- 7 spikes: varied heights and angles for dynamic silhouette -->
  <polygon points="34,22 38,-4 44,18" fill="url(#hair)"/>
  <polygon points="40,18 46,-8 52,16" fill="url(#hair)"/>
  <polygon points="49,14 55,-10 60,12" fill="url(#hair)"/>
  <polygon points="56,12 62,-8 68,13" fill="url(#hair)"/>
  <polygon points="64,14 70,-6 76,16" fill="url(#hair)"/>
  <polygon points="72,18 78,-2 84,20" fill="url(#hair)"/>
  <polygon points="80,22 85,4 90,24" fill="url(#hair)"/>
  <!-- Inner spike texture (darker wedges for depth) -->
  <polygon points="40,18 44,-4 48,16" fill="#2a1808" opacity="0.15"/>
  <polygon points="51,14 55,-6 58,12" fill="#2a1808" opacity="0.12"/>
  <polygon points="62,14 66,-4 70,16" fill="#2a1808" opacity="0.15"/>
  <polygon points="75,18 78,2 82,20" fill="#2a1808" opacity="0.12"/>
  <!-- Gel/styled edge highlights on spike tips -->
  <line x1="38" y1="-1" x2="40" y2="10" stroke="white" stroke-width="1.4" opacity="0.12" stroke-linecap="round"/>
  <line x1="46" y1="-5" x2="48" y2="6" stroke="white" stroke-width="1.2" opacity="0.1" stroke-linecap="round"/>
  <line x1="55" y1="-7" x2="57" y2="4" stroke="white" stroke-width="1.4" opacity="0.13" stroke-linecap="round"/>
  <line x1="62" y1="-5" x2="64" y2="6" stroke="white" stroke-width="1.2" opacity="0.1" stroke-linecap="round"/>
  <line x1="70" y1="-3" x2="72" y2="8" stroke="white" stroke-width="1.4" opacity="0.12" stroke-linecap="round"/>
  <line x1="78" y1="1" x2="79" y2="10" stroke="white" stroke-width="1" opacity="0.08" stroke-linecap="round"/>
  <line x1="85" y1="6" x2="86" y2="14" stroke="white" stroke-width="0.8" opacity="0.07" stroke-linecap="round"/>
  <!-- Hair texture strands between spikes (y<=38) -->
  <path d="M42,16 L41,34" stroke="#6a4428" stroke-width="2" fill="none" stroke-linecap="round" opacity="0.25"/>
  <path d="M54,12 L53,30" stroke="#6a4428" stroke-width="1.8" fill="none" stroke-linecap="round" opacity="0.2"/>
  <path d="M66,14 L67,32" stroke="#5a3420" stroke-width="2" fill="none" stroke-linecap="round" opacity="0.2"/>
  <path d="M76,18 L78,36" stroke="#6a4428" stroke-width="1.5" fill="none" stroke-linecap="round" opacity="0.15"/>
  <path d="M48,14 L47,34" stroke="#6a4428" stroke-width="2" fill="none" stroke-linecap="round" opacity="0.2"/>
  <path d="M36,24 L35,38" stroke="#5a3420" stroke-width="1.2" fill="none" stroke-linecap="round" opacity="0.15"/>
  <!-- Gel shine contour highlights -->
  <path d="M44,10 Q50,6 56,10" stroke="white" stroke-width="1.8" fill="none" stroke-linecap="round" opacity="0.09"/>
  <path d="M62,10 Q68,6 74,12" stroke="white" stroke-width="1.5" fill="none" stroke-linecap="round" opacity="0.07"/>
  <path d="M36,20 Q38,28 36,38" stroke="white" stroke-width="1" fill="none" stroke-linecap="round" opacity="0.06"/>

  <!-- === EYES === -->
  <!-- Eye whites -->
  <ellipse cx="46" cy="44" rx="10" ry="9" fill="white" stroke="#e0d4c8" stroke-width="0.5"/>
  <ellipse cx="74" cy="44" rx="10" ry="9" fill="white" stroke="#e0d4c8" stroke-width="0.5"/>
  <!-- Iris -->
  <circle cx="48" cy="44" r="6.5" fill="url(#iris)"/>
  <circle cx="76" cy="44" r="6.5" fill="url(#iris)"/>
  <!-- Pupil -->
  <circle cx="48" cy="44" r="3.2" fill="#0a0800"/>
  <circle cx="76" cy="44" r="3.2" fill="#0a0800"/>
  <!-- Main highlight -->
  <circle cx="51" cy="42" r="2.8" fill="white" opacity="0.92"/>
  <circle cx="79" cy="42" r="2.8" fill="white" opacity="0.92"/>
  <!-- Secondary highlight -->
  <circle cx="46" cy="47" r="1.5" fill="white" opacity="0.5"/>
  <circle cx="74" cy="47" r="1.5" fill="white" opacity="0.5"/>
  <!-- Upper eyelid (NO eyelashes) -->
  <path d="M36,39 Q46,33 56,39" stroke="#7a5a3a" stroke-width="2.2" fill="none"/>
  <path d="M64,39 Q74,33 84,39" stroke="#7a5a3a" stroke-width="2.2" fill="none"/>
  <!-- Lower lash line -->
  <path d="M40,50 Q46,52 52,50" stroke="#c4a888" stroke-width="0.8" fill="none" opacity="0.3"/>
  <path d="M68,50 Q74,52 80,50" stroke="#c4a888" stroke-width="0.8" fill="none" opacity="0.3"/>
  <!-- Eyebrows — thicker for male -->
  <path d="M37,32 Q46,27 55,31" stroke="#4a2a10" stroke-width="3.5" fill="none" stroke-linecap="round"/>
  <path d="M65,31 Q74,27 83,32" stroke="#4a2a10" stroke-width="3.5" fill="none" stroke-linecap="round"/>

  <!-- Nose -->
  <path d="M59,50 Q60.5,55 59.5,56" stroke="#d4b89a" stroke-width="1.5" fill="none" stroke-linecap="round"/>
  <circle cx="57.5" cy="56" r="1" fill="#d4b89a" opacity="0.35"/>

  <!-- Mouth — confident smile -->
  <path d="M51,60 Q60,67 69,60" stroke="#c07858" stroke-width="2.5" fill="none" stroke-linecap="round"/>
  <path d="M53,63 Q60,65 67,63" stroke="#d8988a" stroke-width="1" fill="none" opacity="0.35"/>

  <!-- === RIM LIGHT === -->
  <path d="M88,18 L90,40 L86,74 L90,106 L92,160" stroke="white" stroke-width="1.5" fill="none" opacity="0.08" stroke-linecap="round"/>
</svg>
