<svg xmlns="http://www.w3.org/2000/svg" viewBox="0 0 120 200">
  <defs>
    <radialGradient id="skin" cx="50%" cy="38%" r="55%">
      <stop offset="0%" stop-color="#fce4cc"/>
      <stop offset="100%" stop-color="#e8c4a0"/>
    </radialGradient>
    <linearGradient id="hair" x1="0" y1="0" x2="0" y2="1">
      <stop offset="0%" stop-color="#5a3a20"/>
      <stop offset="100%" stop-color="#3a2010"/>
    </linearGradient>
    <radialGradient id="iris" cx="45%" cy="38%" r="50%">
      <stop offset="0%" stop-color="#6a5232"/>
      <stop offset="55%" stop-color="#3a2a1a"/>
      <stop offset="100%" stop-color="#1a0a00"/>
    </radialGradient>
    <linearGradient id="pants" x1="0" y1="0" x2="0" y2="1">
      <stop offset="0%" stop-color="#fcfcfa"/>
      <stop offset="100%" stop-color="#e8e6e0"/>
    </linearGradient>
    <linearGradient id="shirt" x1="0" y1="0" x2="0" y2="1">
      <stop offset="0%" stop-color="#fffef8"/>
      <stop offset="100%" stop-color="#f0ede4"/>
    </linearGradient>
    <radialGradient id="shoe" cx="50%" cy="40%" r="60%">
      <stop offset="0%" stop-color="#b09878"/>
      <stop offset="100%" stop-color="#7a6248"/>
    </radialGradient>
    <filter id="glow" x="-20%" y="-20%" width="140%" height="140%">
      <feGaussianBlur stdDeviation="1.2" result="blur"/>
      <feComposite in="SourceGraphic" in2="blur" operator="over"/>
    </filter>
    <filter id="shadow" x="-10%" y="-10%" width="120%" height="130%">
      <feDropShadow dx="0" dy="1.5" stdDeviation="1.5" flood-color="#000" flood-opacity="0.12"/>
    </filter>
    <filter id="inner_shadow" x="-5%" y="-5%" width="110%" height="115%">
      <feDropShadow dx="0" dy="1" stdDeviation="1" flood-color="#000" flood-opacity="0.08"/>
    </filter>
  </defs>

  <!-- Ground shadow -->
  <ellipse cx="60" cy="194" rx="30" ry="5" fill="#000" opacity="0.1"/>

  <!-- === LEGS === -->
  <line x1="48" y1="155" x2="46" y2="176" stroke="url(#skin)" stroke-width="11" stroke-linecap="round"/>
  <line x1="48" y1="155" x2="46" y2="176" stroke="#d8b898" stroke-width="11" stroke-linecap="round" opacity="0.15"/>
  <line x1="72" y1="155" x2="74" y2="176" stroke="url(#skin)" stroke-width="11" stroke-linecap="round"/>

  <!-- === SHOES === -->
  <ellipse cx="46" cy="183" rx="14" ry="8" fill="url(#shoe)" filter="url(#shadow)"/>
  <ellipse cx="46" cy="181" rx="10" ry="4" fill="#c8b088" opacity="0.25"/>
  <ellipse cx="74" cy="183" rx="14" ry="8" fill="url(#shoe)" filter="url(#shadow)"/>
  <ellipse cx="74" cy="181" rx="10" ry="4" fill="#c8b088" opacity="0.25"/>

  <!-- === PANTS (two separate pant legs) === -->
  <!-- Left pant leg -->
  <polygon points="36,160 40,106 58,106 54,160" fill="url(#pants)" filter="url(#shadow)"/>
  <!-- Right pant leg -->
  <polygon points="66,160 62,106 80,106 84,160" fill="url(#pants)" filter="url(#shadow)"/>
  <!-- Inseam lines -->
  <line x1="54" y1="112" x2="54" y2="160" stroke="#d4d0c8" stroke-width="1" opacity="0.3"/>
  <line x1="66" y1="112" x2="66" y2="160" stroke="#d4d0c8" stroke-width="1" opacity="0.3"/>
  <!-- Side creases -->
  <line x1="46" y1="112" x2="42" y2="156" stroke="#ddd" stroke-width="1.2" opacity="0.3"/>
  <line x1="74" y1="112" x2="78" y2="156" stroke="#ddd" stroke-width="1.2" opacity="0.3"/>
  <!-- Hem lines -->
  <line x1="36" y1="158" x2="54" y2="158" stroke="#d0ccc4" stroke-width="1.5" opacity="0.5"/>
  <line x1="66" y1="158" x2="84" y2="158" stroke="#d0ccc4" stroke-width="1.5" opacity="0.5"/>
  <!-- Waistband -->
  <rect x="38" y="104" width="44" height="5" rx="2.5" fill="#e8dcd0" opacity="0.5"/>

  <!-- === TORSO / SHIRT === -->
  <path d="M40,106 Q38,78 42,74 L78,74 Q82,78 80,106Z" fill="url(#shirt)" filter="url(#inner_shadow)"/>
  <!-- Polo collar V-opening -->
  <path d="M60,74 L54,88" stroke="#f0d8c0" stroke-width="3" fill="none" stroke-linecap="round"/>
  <path d="M60,74 L66,88" stroke="#f0d8c0" stroke-width="3" fill="none" stroke-linecap="round"/>
  <!-- Polo collar (pointed, structured) -->
  <path d="M48,76 L54,80 L60,74 L66,80 L72,76" stroke="#e8e2d8" stroke-width="1.5" fill="#f8f4ee" opacity="0.7"/>
  <!-- 3 buttons -->
  <circle cx="60" cy="88" r="2" fill="#d4cec4"/>
  <circle cx="60" cy="94" r="2" fill="#d4cec4"/>
  <circle cx="60" cy="100" r="2" fill="#d4cec4"/>

  <!-- === ARMS === -->
  <!-- Left arm -->
  <line x1="38" y1="82" x2="22" y2="124" stroke="#d8b898" stroke-width="10" stroke-linecap="round" opacity="0.15"/>
  <line x1="38" y1="80" x2="22" y2="122" stroke="url(#skin)" stroke-width="10" stroke-linecap="round"/>
  <circle cx="22" cy="122" r="6.5" fill="url(#skin)"/>
  <circle cx="20" cy="120" r="2.5" fill="#fce4cc" opacity="0.35"/>
  <!-- Right arm -->
  <line x1="82" y1="80" x2="98" y2="122" stroke="url(#skin)" stroke-width="10" stroke-linecap="round"/>
  <circle cx="98" cy="122" r="6.5" fill="url(#skin)"/>
  <circle cx="96" cy="120" r="2.5" fill="#fce4cc" opacity="0.35"/>
  <!-- Sleeves (fitted, not puffy) -->
  <ellipse cx="38" cy="80" rx="12" ry="10" fill="url(#shirt)" filter="url(#inner_shadow)"/>
  <ellipse cx="38" cy="78" rx="7" ry="4" fill="white" opacity="0.12"/>
  <ellipse cx="82" cy="80" rx="12" ry="10" fill="url(#shirt)" filter="url(#inner_shadow)"/>
  <ellipse cx="82" cy="78" rx="7" ry="4" fill="white" opacity="0.12"/>

  <!-- === NECK === -->
  <rect x="53" y="58" width="14" height="18" fill="url(#skin)" rx="5"/>

  <!-- === HAIR BACK (buzz cut — dark base + close-cropped cap, BEFORE head) === -->
  <!-- Dark base shadow behind hair -->
  <path d="M29,46 Q28,22 32,14 Q40,8 60,9 Q80,8 88,14 Q92,22 91,46" fill="#2a1808" opacity="0.3"/>
  <!-- Close-cropped cap -->
  <path d="M31,44 Q30,24 34,16 Q42,10 60,11 Q78,10 86,16 Q90,24 89,44" fill="url(#hair)"/>

  <!-- === HEAD (chibi — larger, rounder) === -->
  <ellipse cx="60" cy="40" rx="30" ry="32" fill="url(#skin)" filter="url(#shadow)"/>
  <!-- Cheek blush (subtle for male) -->
  <ellipse cx="36" cy="50" rx="7" ry="4" fill="#ffb0a0" opacity="0.12"/>
  <ellipse cx="84" cy="50" rx="7" ry="4" fill="#ffb0a0" opacity="0.12"/>
  <!-- Forehead highlight -->
  <ellipse cx="58" cy="22" rx="16" ry="10" fill="white" opacity="0.07"/>

  <!-- === HAIR TOP (buzz cut details — scalp, hairline, temples, stubble, sheen) === -->
  <!-- Scalp gradient showing through -->
  <path d="M35,42 Q34,26 38,18 Q46,12 60,13 Q74,12 82,18 Q86,26 85,42" fill="#e8c4a0" opacity="0.08"/>
  <!-- Hairline edge definition (sharp clean) -->
  <path d="M33,44 Q32,26 36,18 Q44,12 60,13 Q76,12 84,18 Q88,26 87,44" stroke="#4a2a16" stroke-width="0.8" fill="none" opacity="0.3"/>
  <!-- Inner hairline contour -->
  <path d="M35,42 Q34,28 38,20 Q46,14 60,14 Q74,14 82,20 Q86,28 85,42" stroke="#4a2a16" stroke-width="0.4" fill="none" opacity="0.15"/>
  <!-- Temple fade (left) -->
  <path d="M33,44 Q31,38 33,30" fill="url(#hair)" opacity="0.4"/>
  <path d="M33,44 Q32,40 33,36" fill="#e8c4a0" opacity="0.06"/>
  <!-- Temple fade (right) -->
  <path d="M87,44 Q89,38 87,30" fill="url(#hair)" opacity="0.4"/>
  <path d="M87,44 Q88,40 87,36" fill="#e8c4a0" opacity="0.06"/>
  <!-- Stubble texture dots — dense grid -->
  <circle cx="42" cy="18" r="0.8" fill="#3a2010" opacity="0.2"/>
  <circle cx="50" cy="14" r="0.7" fill="#3a2010" opacity="0.18"/>
  <circle cx="60" cy="13" r="0.8" fill="#3a2010" opacity="0.22"/>
  <circle cx="70" cy="14" r="0.7" fill="#3a2010" opacity="0.2"/>
  <circle cx="78" cy="18" r="0.8" fill="#3a2010" opacity="0.18"/>
  <circle cx="46" cy="24" r="0.6" fill="#3a2010" opacity="0.15"/>
  <circle cx="54" cy="18" r="0.6" fill="#3a2010" opacity="0.15"/>
  <circle cx="66" cy="18" r="0.6" fill="#3a2010" opacity="0.15"/>
  <circle cx="74" cy="24" r="0.6" fill="#3a2010" opacity="0.15"/>
  <circle cx="38" cy="30" r="0.7" fill="#3a2010" opacity="0.12"/>
  <circle cx="82" cy="30" r="0.7" fill="#3a2010" opacity="0.12"/>
  <circle cx="48" cy="28" r="0.5" fill="#3a2010" opacity="0.1"/>
  <circle cx="60" cy="20" r="0.6" fill="#3a2010" opacity="0.14"/>
  <circle cx="72" cy="28" r="0.5" fill="#3a2010" opacity="0.1"/>
  <!-- Additional stipple rows for fuller buzz texture -->
  <circle cx="45" cy="16" r="0.5" fill="#3a2010" opacity="0.16"/>
  <circle cx="55" cy="16" r="0.5" fill="#3a2010" opacity="0.14"/>
  <circle cx="65" cy="16" r="0.5" fill="#3a2010" opacity="0.16"/>
  <circle cx="75" cy="16" r="0.5" fill="#3a2010" opacity="0.14"/>
  <circle cx="40" cy="22" r="0.6" fill="#3a2010" opacity="0.13"/>
  <circle cx="52" cy="22" r="0.5" fill="#3a2010" opacity="0.12"/>
  <circle cx="60" cy="26" r="0.5" fill="#3a2010" opacity="0.11"/>
  <circle cx="68" cy="22" r="0.5" fill="#3a2010" opacity="0.12"/>
  <circle cx="80" cy="22" r="0.6" fill="#3a2010" opacity="0.13"/>
  <circle cx="36" cy="36" r="0.5" fill="#3a2010" opacity="0.08"/>
  <circle cx="44" cy="34" r="0.5" fill="#3a2010" opacity="0.09"/>
  <circle cx="56" cy="30" r="0.4" fill="#3a2010" opacity="0.1"/>
  <circle cx="64" cy="30" r="0.4" fill="#3a2010" opacity="0.1"/>
  <circle cx="76" cy="34" r="0.5" fill="#3a2010" opacity="0.09"/>
  <circle cx="84" cy="36" r="0.5" fill="#3a2010" opacity="0.08"/>
  <!-- Subtle sheen highlights -->
  <path d="M52,14 Q56,17 54,28" stroke="white" stroke-width="1.5" fill="none" stroke-linecap="round" opacity="0.08"/>
  <path d="M64,14 Q66,18 64,26" stroke="white" stroke-width="1.2" fill="none" stroke-linecap="round" opacity="0.06"/>
  <path d="M48,20 Q50,24 48,32" stroke="white" stroke-width="1" fill="none" stroke-linecap="round" opacity="0.05"/>

  <!-- === EYES === -->
  <!-- Eye whites -->
  <ellipse cx="46" cy="44" rx="10" ry="9" fill="white" stroke="#e0d4c8" stroke-width="0.5"/>
  <ellipse cx="74" cy="44" rx="10" ry="9" fill="white" stroke="#e0d4c8" stroke-width="0.5"/>
  <!-- Iris -->
  <circle cx="48" cy="44" r="6.5" fill="url(#iris)"/>
  <circle cx="76" cy="44" r="6.5" fill="url(#iris)"/>
  <!-- Pupil -->
  <circle cx="48" cy="44" r="3.2" fill="#0a0800"/>
  <circle cx="76" cy="44" r="3.2" fill="#0a0800"/>
  <!-- Main highlight -->
  <circle cx="51" cy="42" r="2.8" fill="white" opacity="0.92"/>
  <circle cx="79" cy="42" r="2.8" fill="white" opacity="0.92"/>
  <!-- Secondary highlight -->
  <circle cx="46" cy="47" r="1.5" fill="white" opacity="0.5"/>
  <circle cx="74" cy="47" r="1.5" fill="white" opacity="0.5"/>
  <!-- Upper eyelid (NO eyelashes) -->
  <path d="M36,39 Q46,33 56,39" stroke="#7a5a3a" stroke-width="2.2" fill="none"/>
  <path d="M64,39 Q74,33 84,39" stroke="#7a5a3a" stroke-width="2.2" fill="none"/>
  <!-- Lower lash line -->
  <path d="M40,50 Q46,52 52,50" stroke="#c4a888" stroke-width="0.8" fill="none" opacity="0.3"/>
  <path d="M68,50 Q74,52 80,50" stroke="#c4a888" stroke-width="0.8" fill="none" opacity="0.3"/>
  <!-- Eyebrows — thicker for male -->
  <path d="M37,32 Q46,27 55,31" stroke="#4a2a10" stroke-width="3.5" fill="none" stroke-linecap="round"/>
  <path d="M65,31 Q74,27 83,32" stroke="#4a2a10" stroke-width="3.5" fill="none" stroke-linecap="round"/>

  <!-- Nose -->
  <path d="M59,50 Q60.5,55 59.5,56" stroke="#d4b89a" stroke-width="1.5" fill="none" stroke-linecap="round"/>
  <circle cx="57.5" cy="56" r="1" fill="#d4b89a" opacity="0.35"/>

  <!-- Mouth — confident smile -->
  <path d="M51,60 Q60,67 69,60" stroke="#c07858" stroke-width="2.5" fill="none" stroke-linecap="round"/>
  <path d="M53,63 Q60,65 67,63" stroke="#d8988a" stroke-width="1" fill="none" opacity="0.35"/>

  <!-- === RIM LIGHT === -->
  <path d="M88,18 L90,40 L86,74 L90,106 L92,160" stroke="white" stroke-width="1.5" fill="none" opacity="0.08" stroke-linecap="round"/>
</svg>
