<svg xmlns="http://www.w3.org/2000/svg" viewBox="0 0 120 200">
  <defs>
    <radialGradient id="skin" cx="50%" cy="38%" r="55%">
      <stop offset="0%" stop-color="#fce4cc"/>
      <stop offset="100%" stop-color="#e8c4a0"/>
    </radialGradient>
    <linearGradient id="hair" x1="0" y1="0" x2="0" y2="1">
      <stop offset="0%" stop-color="#5a3a20"/>
      <stop offset="100%" stop-color="#3a2010"/>
    </linearGradient>
    <radialGradient id="iris" cx="45%" cy="38%" r="50%">
      <stop offset="0%" stop-color="#6a5232"/>
      <stop offset="55%" stop-color="#3a2a1a"/>
      <stop offset="100%" stop-color="#1a0a00"/>
    </radialGradient>
    <linearGradient id="pants" x1="0" y1="0" x2="0" y2="1">
      <stop offset="0%" stop-color="#fcfcfa"/>
      <stop offset="100%" stop-color="#e8e6e0"/>
    </linearGradient>
    <linearGradient id="shirt" x1="0" y1="0" x2="0" y2="1">
      <stop offset="0%" stop-color="#fffef8"/>
      <stop offset="100%" stop-color="#f0ede4"/>
    </linearGradient>
    <radialGradient id="shoe" cx="50%" cy="40%" r="60%">
      <stop offset="0%" stop-color="#b09878"/>
      <stop offset="100%" stop-color="#7a6248"/>
    </radialGradient>
    <filter id="glow" x="-20%" y="-20%" width="140%" height="140%">
      <feGaussianBlur stdDeviation="1.2" result="blur"/>
      <feComposite in="SourceGraphic" in2="blur" operator="over"/>
    </filter>
    <filter id="shadow" x="-10%" y="-10%" width="120%" height="130%">
      <feDropShadow dx="0" dy="1.5" stdDeviation="1.5" flood-color="#000" flood-opacity="0.12"/>
    </filter>
    <filter id="inner_shadow" x="-5%" y="-5%" width="110%" height="115%">
      <feDropShadow dx="0" dy="1" stdDeviation="1" flood-color="#000" flood-opacity="0.08"/>
    </filter>
  </defs>

  <!-- Ground shadow (smaller during jump) -->
  <ellipse cx="60" cy="194" rx="22" ry="4" fill="#000" opacity="0.07"/>

  <!-- === LEGS — spread wider === -->
  <line x1="46" y1="143" x2="38" y2="170" stroke="url(#skin)" stroke-width="11" stroke-linecap="round"/>
  <line x1="46" y1="143" x2="38" y2="170" stroke="#d8b898" stroke-width="11" stroke-linecap="round" opacity="0.15"/>
  <line x1="74" y1="143" x2="82" y2="170" stroke="url(#skin)" stroke-width="11" stroke-linecap="round"/>

  <!-- === SHOES (at x=38/82) === -->
  <ellipse cx="38" cy="177" rx="14" ry="8" fill="url(#shoe)" filter="url(#shadow)"/>
  <ellipse cx="38" cy="175" rx="10" ry="4" fill="#c8b088" opacity="0.25"/>
  <ellipse cx="82" cy="177" rx="14" ry="8" fill="url(#shoe)" filter="url(#shadow)"/>
  <ellipse cx="82" cy="175" rx="10" ry="4" fill="#c8b088" opacity="0.25"/>

  <!-- === PANTS — dynamic spread === -->
  <polygon points="24,148 38,94 82,94 96,148" fill="url(#pants)" filter="url(#shadow)"/>
  <!-- Center seam -->
  <line x1="60" y1="94" x2="60" y2="148" stroke="#d4d0c8" stroke-width="1.2" opacity="0.4"/>
  <!-- Side creases -->
  <line x1="48" y1="100" x2="40" y2="144" stroke="#ddd" stroke-width="1.2" opacity="0.3"/>
  <line x1="72" y1="100" x2="80" y2="144" stroke="#ddd" stroke-width="1.2" opacity="0.3"/>
  <!-- Hem lines -->
  <line x1="26" y1="146" x2="58" y2="146" stroke="#d0ccc4" stroke-width="1.5" opacity="0.5"/>
  <line x1="62" y1="146" x2="94" y2="146" stroke="#d0ccc4" stroke-width="1.5" opacity="0.5"/>

  <!-- === TORSO / SHIRT === -->
  <path d="M38,94 Q36,66 40,62 L80,62 Q84,66 82,94Z" fill="url(#shirt)" filter="url(#inner_shadow)"/>
  <!-- Polo collar V-opening -->
  <path d="M60,62 L54,76" stroke="#f0d8c0" stroke-width="3" fill="none" stroke-linecap="round"/>
  <path d="M60,62 L66,76" stroke="#f0d8c0" stroke-width="3" fill="none" stroke-linecap="round"/>
  <!-- Polo collar (pointed, structured) -->
  <path d="M48,64 L54,68 L60,62 L66,68 L72,64" stroke="#e8e2d8" stroke-width="1.5" fill="#f8f4ee" opacity="0.7"/>
  <!-- 3 buttons -->
  <circle cx="60" cy="76" r="2" fill="#d4cec4"/>
  <circle cx="60" cy="82" r="2" fill="#d4cec4"/>
  <circle cx="60" cy="88" r="2" fill="#d4cec4"/>

  <!-- === ARMS — raised up === -->
  <!-- Left arm -->
  <line x1="36" y1="70" x2="12" y2="40" stroke="#d8b898" stroke-width="10" stroke-linecap="round" opacity="0.15"/>
  <line x1="36" y1="68" x2="12" y2="38" stroke="url(#skin)" stroke-width="10" stroke-linecap="round"/>
  <circle cx="12" cy="38" r="6.5" fill="url(#skin)"/>
  <circle cx="10" cy="36" r="2.5" fill="#fce4cc" opacity="0.35"/>
  <!-- Right arm -->
  <line x1="84" y1="68" x2="108" y2="38" stroke="url(#skin)" stroke-width="10" stroke-linecap="round"/>
  <circle cx="108" cy="38" r="6.5" fill="url(#skin)"/>
  <circle cx="106" cy="36" r="2.5" fill="#fce4cc" opacity="0.35"/>
  <!-- Sleeve caps -->
  <ellipse cx="36" cy="68" rx="12" ry="10" fill="url(#shirt)" filter="url(#inner_shadow)"/>
  <ellipse cx="36" cy="66" rx="7" ry="4" fill="white" opacity="0.12"/>
  <ellipse cx="84" cy="68" rx="12" ry="10" fill="url(#shirt)" filter="url(#inner_shadow)"/>
  <ellipse cx="84" cy="66" rx="7" ry="4" fill="white" opacity="0.12"/>

  <!-- === NECK === -->
  <rect x="53" y="46" width="14" height="18" fill="url(#skin)" rx="5"/>

  <!-- === HEAD (chibi — shifted up 12, center at cy=28) === -->
  <ellipse cx="60" cy="28" rx="30" ry="32" fill="url(#skin)" filter="url(#shadow)"/>
  <!-- Cheek blush (subtle for male) -->
  <ellipse cx="36" cy="38" rx="7" ry="4" fill="#ffb0a0" opacity="0.12"/>
  <ellipse cx="84" cy="38" rx="7" ry="4" fill="#ffb0a0" opacity="0.12"/>
  <!-- Forehead highlight -->
  <ellipse cx="58" cy="10" rx="16" ry="10" fill="white" opacity="0.07"/>

  <!-- === HAIR (buzz cut — shifted up 12, thin layer hugging head) === -->
  <!-- Close-cropped cap -->
  <path d="M31,32 Q30,12 34,4 Q42,-2 60,-1 Q78,-2 86,4 Q90,12 89,32" fill="url(#hair)"/>
  <!-- Hairline edge definition -->
  <path d="M33,32 Q32,14 36,6 Q44,0 60,1 Q76,0 84,6 Q88,14 87,32" stroke="#4a2a16" stroke-width="0.6" fill="none" opacity="0.25"/>
  <!-- Stubble texture dots -->
  <circle cx="42" cy="6" r="0.8" fill="#3a2010" opacity="0.2"/>
  <circle cx="50" cy="2" r="0.7" fill="#3a2010" opacity="0.18"/>
  <circle cx="60" cy="1" r="0.8" fill="#3a2010" opacity="0.22"/>
  <circle cx="70" cy="2" r="0.7" fill="#3a2010" opacity="0.2"/>
  <circle cx="78" cy="6" r="0.8" fill="#3a2010" opacity="0.18"/>
  <circle cx="46" cy="12" r="0.6" fill="#3a2010" opacity="0.15"/>
  <circle cx="54" cy="6" r="0.6" fill="#3a2010" opacity="0.15"/>
  <circle cx="66" cy="6" r="0.6" fill="#3a2010" opacity="0.15"/>
  <circle cx="74" cy="12" r="0.6" fill="#3a2010" opacity="0.15"/>
  <circle cx="38" cy="18" r="0.7" fill="#3a2010" opacity="0.12"/>
  <circle cx="82" cy="18" r="0.7" fill="#3a2010" opacity="0.12"/>
  <circle cx="48" cy="16" r="0.5" fill="#3a2010" opacity="0.1"/>
  <circle cx="60" cy="8" r="0.6" fill="#3a2010" opacity="0.14"/>
  <circle cx="72" cy="16" r="0.5" fill="#3a2010" opacity="0.1"/>
  <!-- Subtle sheen -->
  <path d="M52,2 Q56,5 54,16" stroke="white" stroke-width="1.5" fill="none" stroke-linecap="round" opacity="0.08"/>

  <!-- === EYES (slightly taller — excited) === -->
  <!-- Eye whites -->
  <ellipse cx="46" cy="32" rx="10" ry="9.5" fill="white" stroke="#e0d4c8" stroke-width="0.5"/>
  <ellipse cx="74" cy="32" rx="10" ry="9.5" fill="white" stroke="#e0d4c8" stroke-width="0.5"/>
  <!-- Iris -->
  <circle cx="48" cy="32" r="6.5" fill="url(#iris)"/>
  <circle cx="76" cy="32" r="6.5" fill="url(#iris)"/>
  <!-- Pupil -->
  <circle cx="48" cy="32" r="3.2" fill="#0a0800"/>
  <circle cx="76" cy="32" r="3.2" fill="#0a0800"/>
  <!-- Main highlight -->
  <circle cx="51" cy="30" r="2.8" fill="white" opacity="0.92"/>
  <circle cx="79" cy="30" r="2.8" fill="white" opacity="0.92"/>
  <!-- Secondary highlight -->
  <circle cx="46" cy="35" r="1.5" fill="white" opacity="0.5"/>
  <circle cx="74" cy="35" r="1.5" fill="white" opacity="0.5"/>
  <!-- Upper eyelid (NO eyelashes) -->
  <path d="M36,27 Q46,21 56,27" stroke="#7a5a3a" stroke-width="2.2" fill="none"/>
  <path d="M64,27 Q74,21 84,27" stroke="#7a5a3a" stroke-width="2.2" fill="none"/>
  <!-- Lower lash line -->
  <path d="M40,38 Q46,40 52,38" stroke="#c4a888" stroke-width="0.8" fill="none" opacity="0.3"/>
  <path d="M68,38 Q74,40 80,38" stroke="#c4a888" stroke-width="0.8" fill="none" opacity="0.3"/>
  <!-- Eyebrows — raised (excited), thicker -->
  <path d="M37,19 Q46,14 55,18" stroke="#4a2a10" stroke-width="3.5" fill="none" stroke-linecap="round"/>
  <path d="M65,18 Q74,14 83,19" stroke="#4a2a10" stroke-width="3.5" fill="none" stroke-linecap="round"/>

  <!-- Nose -->
  <path d="M59,38 Q60.5,43 59.5,44" stroke="#d4b89a" stroke-width="1.5" fill="none" stroke-linecap="round"/>
  <circle cx="57.5" cy="44" r="1" fill="#d4b89a" opacity="0.35"/>

  <!-- Mouth — wider/open excited smile -->
  <path d="M49,48 Q60,56 71,48" stroke="#c07858" stroke-width="2.5" fill="none" stroke-linecap="round"/>
  <!-- Open mouth -->
  <path d="M52,50 Q60,54 68,50" fill="#a05040" opacity="0.3"/>

  <!-- === RIM LIGHT === -->
  <path d="M88,6 L90,28 L86,62 L90,94 L92,148" stroke="white" stroke-width="1.5" fill="none" opacity="0.08" stroke-linecap="round"/>
</svg>
