<svg xmlns="http://www.w3.org/2000/svg" viewBox="0 0 64 120">
  <!-- Shadow -->
  <ellipse cx="32" cy="115" rx="22" ry="5" fill="black" opacity="0.12"/>
  <!-- Legs -->
  <line x1="22" y1="88" x2="20" y2="110" stroke="#8b7355" stroke-width="6" stroke-linecap="round"/>
  <line x1="42" y1="88" x2="44" y2="110" stroke="#8b7355" stroke-width="6" stroke-linecap="round"/>
  <!-- Dress body -->
  <polygon points="14,88 22,52 42,52 50,88" fill="#f0f0f0"/>
  <line x1="16" y1="86" x2="48" y2="86" stroke="#e0e0e0" stroke-width="2"/>
  <!-- Arms at sides -->
  <line x1="22" y1="56" x2="10" y2="80" stroke="#f0d4b8" stroke-width="6" stroke-linecap="round"/>
  <line x1="42" y1="56" x2="54" y2="80" stroke="#f0d4b8" stroke-width="6" stroke-linecap="round"/>
  <!-- Head -->
  <circle cx="32" cy="38" r="16" fill="#f0d4b8"/>
  <!-- Hair -->
  <path d="M16,36 Q16,22 32,20 Q48,22 48,36" fill="#8b7355"/>
  <circle cx="32" cy="26" r="12" fill="#8b7355"/>
  <!-- Eyes -->
  <circle cx="27" cy="38" r="2.5" fill="#3d3929"/>
  <circle cx="37" cy="38" r="2.5" fill="#3d3929"/>
  <!-- Smile -->
  <path d="M28,44 Q32,48 36,44" stroke="#c9886e" stroke-width="1.5" fill="none"/>
</svg>
